<svg width="141" height="48" viewBox="0 0 141 48" fill="none" xmlns="http://www.w3.org/2000/svg">
<path d="M26.0553 13.481H18.278L13.0286 23.2031L7.77922 13.481H0.00195312V30.4941H6.32059V22.3996L10.9622 30.4941H15.095L19.7366 22.3996V30.4941H26.0553V13.481Z" fill="white"/>
<path d="M43.0689 30.499H50.0201L42.9721 13.4858H33.5899L26.542 30.499H33.4931L34.6592 27.4355H41.9029L43.0689 30.499ZM36.3115 23.0617L38.281 17.8596L40.2506 23.0617H36.3135H36.3115Z" fill="white"/>
<path d="M67.2767 13.481H46.3739V18.8272H53.665V30.4941H59.9836V18.8272H67.2746V13.481H67.2767Z" fill="white"/>
<path d="M87.8918 19.9953C87.8918 16.2045 85.2424 13.481 81.3774 13.481H68.0088V30.4941H74.3274V26.5076H78.0461L80.403 30.4941H87.8897L84.8757 25.6094C86.7463 24.5154 87.8897 22.4737 87.8897 19.9953H87.8918ZM74.3295 18.8292H80.1619C80.7944 18.8292 81.5711 18.8292 81.5711 19.9953C81.5711 21.1614 80.7944 21.1614 80.1619 21.1614H74.3295V18.8272V18.8292Z" fill="white"/>
<path d="M94.9396 13.481H88.621V30.4941H94.9396V13.481Z" fill="black"/>
<path d="M0 36.2931C0 38.4419 1.16195 39.472 3.87524 39.472C6.34954 39.472 7.62687 38.6006 7.7237 36.6454H5.38125C5.29266 37.2347 4.84353 37.5355 3.87524 37.5355C2.52787 37.5355 2.28888 36.9545 2.28888 36.2931C2.28888 35.6318 2.51757 35.0694 3.87524 35.0694C4.84353 35.0694 5.29266 35.3599 5.38125 35.9409H7.7237C7.62687 33.994 6.3413 33.1307 3.87524 33.1307C1.16195 33.1307 0 34.1526 0 36.2931Z" fill="white"/>
<path d="M13.0994 39.3863H15.619L13.0643 33.2201H9.665L7.11035 39.3863H9.62998L10.0523 38.2758H12.677L13.0994 39.3863ZM10.6498 36.6915L11.3626 34.8064L12.0754 36.6915H10.6477H10.6498Z" fill="white"/>
<path d="M25.2359 33.2202H22.4175L20.5139 36.7432L18.6123 33.2202H15.7939V39.3864H18.0849V36.4527L19.7681 39.3864H21.2658L22.949 36.4527V39.3864H25.24V33.2202H25.2359Z" fill="white"/>
<path d="M30.4326 33.2201H25.5891V39.3863H27.88V37.9421H30.4346C31.8356 37.9421 32.7956 36.9552 32.7956 35.5811C32.7956 34.2069 31.8356 33.2201 30.4346 33.2201H30.4326ZM29.9938 36.0034H27.88V35.1587H29.9938C30.2224 35.1587 30.5047 35.1587 30.5047 35.5811C30.5047 36.0034 30.2224 36.0034 29.9938 36.0034Z" fill="white"/>
<path d="M40.8083 36.2939V33.2201H38.5173V36.2939C38.5173 36.9449 38.2804 37.5362 36.9309 37.5362C35.5815 37.5362 35.3446 36.9552 35.3446 36.2939V33.2201H33.0536V36.2939C33.0536 38.4427 34.2156 39.4728 36.9289 39.4728C39.6422 39.4728 40.8041 38.4324 40.8041 36.2939H40.8083Z" fill="white"/>
<path d="M41.0715 37.2099C41.0715 39.0415 42.4806 39.4741 45.0085 39.4741C47.5364 39.4741 48.9455 39.0415 48.9455 37.3418C48.9455 35.7307 47.4395 35.5618 45.0085 35.4649C43.6694 35.4114 43.4489 35.4217 43.4489 35.1827C43.4489 34.9437 43.6694 34.8922 44.7427 34.8922C45.8161 34.8922 46.3909 34.9623 46.3909 35.2878H48.6818C48.6818 33.7117 47.3262 33.1307 44.9199 33.1307C42.5136 33.1307 41.158 33.7117 41.158 35.0694C41.158 36.5053 42.2231 36.9627 45.0064 37.0513C46.4506 37.0946 46.6546 37.1317 46.6546 37.3954C46.6546 37.624 46.4527 37.7126 45.095 37.7126C43.6426 37.7126 43.3603 37.5107 43.3603 37.2099H41.0694H41.0715Z" fill="white"/>
<path fill-rule="evenodd" clip-rule="evenodd" d="M108.038 23.5876C108.588 23.5608 110.739 26.2494 111.652 27.0817L116.843 32.4898C117.169 32.8688 117.144 32.7246 117.047 33.1305C118.203 33.1799 119.41 35.8953 120.506 36.1878L140.161 36.2105C140.004 35.7634 134.019 29.9743 133.519 29.4819L128.424 24.4447C127.21 23.223 126.934 23.4414 126.86 22.4648C126.576 22.712 126.489 22.2567 126.609 22.7574C126.388 22.0693 126.65 22.6255 126.088 22.1372L124.373 20.4499C123.91 19.9782 123.687 19.8545 123.209 19.358L120.966 17.0939C120.461 16.6777 120.288 16.4511 119.864 15.9669C119.571 15.6332 119.046 15.1882 118.706 14.8771C118.253 14.4609 117.696 14.189 117.974 13.4803L117.402 13.6389C116.837 12.8705 115.422 11.622 114.658 10.8844C113.739 9.99854 112.842 9.06114 111.845 8.07225C109.971 6.20982 108.149 4.39479 106.182 2.4788C105.648 1.95963 105.368 1.66502 104.81 1.11907C104.256 0.577232 104.072 0.0910235 102.929 0.0683613C99.8138 0.00861539 87.7348 -0.0758514 86.0392 0.134289L107.424 22.609C107.995 23.1777 107.91 23.1632 108.04 23.5856L108.038 23.5876Z" fill="#3299FE"/>
<path fill-rule="evenodd" clip-rule="evenodd" d="M117.046 33.1309C117.143 32.7251 117.168 32.8693 116.842 32.4902L111.651 27.0822C110.738 26.2498 108.585 23.5633 108.037 23.5881C107.685 23.6643 97.2252 34.435 96.5659 35.0881L85.0762 46.8889C87.7936 47.165 98.1049 46.9466 102.112 46.9363C105.143 46.9281 104.475 46.7715 106.055 45.0574L117.048 33.1309H117.046Z" fill="#3299FE"/>
<path fill-rule="evenodd" clip-rule="evenodd" d="M117.97 13.4801C117.692 14.1888 118.248 14.4607 118.7 14.8769C119.039 15.1901 119.565 15.633 119.857 15.9667C120.284 16.4509 120.455 16.6775 120.96 17.0937L123.203 19.3578C123.683 19.8544 123.904 19.978 124.367 20.4497L126.081 22.1371C126.644 22.6253 126.382 22.0691 126.602 22.7572C126.483 22.2565 126.569 22.7118 126.854 22.4646C127.291 22.3596 127.785 21.5829 128.156 21.1832L137.717 10.8245L120.434 10.7771L117.968 13.4821L117.97 13.4801Z" fill="#3299FE"/>
<path d="M26.0553 13.481H18.278L13.0286 23.2031L7.77922 13.481H0.00195312V30.4941H6.32059V22.3996L10.9622 30.4941H15.095L19.7366 22.3996V30.4941H26.0553V13.481Z" fill="white"/>
<path d="M43.0689 30.499H50.0201L42.9721 13.4858H33.5899L26.542 30.499H33.4931L34.6592 27.4355H41.9029L43.0689 30.499ZM36.3115 23.0617L38.281 17.8596L40.2506 23.0617H36.3135H36.3115Z" fill="white"/>
<path d="M67.2767 13.481H46.3739V18.8272H53.665V30.4941H59.9836V18.8272H67.2746V13.481H67.2767Z" fill="white"/>
<path d="M87.8918 19.9953C87.8918 16.2045 85.2424 13.481 81.3774 13.481H68.0088V30.4941H74.3274V26.5076H78.0461L80.403 30.4941H87.8897L84.8757 25.6094C86.7463 24.5154 87.8897 22.4737 87.8897 19.9953H87.8918ZM74.3295 18.8292H80.1619C80.7944 18.8292 81.5711 18.8292 81.5711 19.9953C81.5711 21.1614 80.7944 21.1614 80.1619 21.1614H74.3295V18.8272V18.8292Z" fill="white"/>
<path d="M94.9396 13.481H88.621V30.4941H94.9396V13.481Z" fill="white"/>
<path d="M0 36.2931C0 38.4419 1.16195 39.472 3.87524 39.472C6.34954 39.472 7.62687 38.6006 7.7237 36.6454H5.38125C5.29266 37.2347 4.84353 37.5355 3.87524 37.5355C2.52787 37.5355 2.28888 36.9545 2.28888 36.2931C2.28888 35.6318 2.51757 35.0694 3.87524 35.0694C4.84353 35.0694 5.29266 35.3599 5.38125 35.9409H7.7237C7.62687 33.994 6.3413 33.1307 3.87524 33.1307C1.16195 33.1307 0 34.1526 0 36.2931Z" fill="white"/>
<path d="M13.0994 39.3863H15.619L13.0643 33.2201H9.665L7.11035 39.3863H9.62998L10.0523 38.2758H12.677L13.0994 39.3863ZM10.6498 36.6915L11.3626 34.8064L12.0754 36.6915H10.6477H10.6498Z" fill="white"/>
<path d="M25.2359 33.2202H22.4175L20.5139 36.7432L18.6123 33.2202H15.7939V39.3864H18.0849V36.4527L19.7681 39.3864H21.2658L22.949 36.4527V39.3864H25.24V33.2202H25.2359Z" fill="white"/>
<path d="M30.4326 33.2201H25.5891V39.3863H27.88V37.9421H30.4346C31.8356 37.9421 32.7956 36.9552 32.7956 35.5811C32.7956 34.2069 31.8356 33.2201 30.4346 33.2201H30.4326ZM29.9938 36.0034H27.88V35.1587H29.9938C30.2224 35.1587 30.5047 35.1587 30.5047 35.5811C30.5047 36.0034 30.2224 36.0034 29.9938 36.0034Z" fill="white"/>
<path d="M40.8083 36.2939V33.2201H38.5173V36.2939C38.5173 36.9449 38.2804 37.5362 36.9309 37.5362C35.5815 37.5362 35.3446 36.9552 35.3446 36.2939V33.2201H33.0536V36.2939C33.0536 38.4427 34.2156 39.4728 36.9289 39.4728C39.6422 39.4728 40.8041 38.4324 40.8041 36.2939H40.8083Z" fill="white"/>
<path d="M41.0715 37.2099C41.0715 39.0415 42.4806 39.4741 45.0085 39.4741C47.5364 39.4741 48.9455 39.0415 48.9455 37.3418C48.9455 35.7307 47.4395 35.5618 45.0085 35.4649C43.6694 35.4114 43.4489 35.4217 43.4489 35.1827C43.4489 34.9437 43.6694 34.8922 44.7427 34.8922C45.8161 34.8922 46.3909 34.9623 46.3909 35.2878H48.6818C48.6818 33.7117 47.3262 33.1307 44.9199 33.1307C42.5136 33.1307 41.158 33.7117 41.158 35.0694C41.158 36.5053 42.2231 36.9627 45.0064 37.0513C46.4506 37.0946 46.6546 37.1317 46.6546 37.3954C46.6546 37.624 46.4527 37.7126 45.095 37.7126C43.6426 37.7126 43.3603 37.5107 43.3603 37.2099H41.0694H41.0715Z" fill="white"/>
<path fill-rule="evenodd" clip-rule="evenodd" d="M108.038 23.5876C108.588 23.5608 110.739 26.2494 111.652 27.0817L116.843 32.4898C117.169 32.8688 117.144 32.7246 117.047 33.1305C118.203 33.1799 119.41 35.8953 120.506 36.1878L140.161 36.2105C140.004 35.7634 134.019 29.9743 133.519 29.4819L128.424 24.4447C127.21 23.223 126.934 23.4414 126.86 22.4648C126.576 22.712 126.489 22.2567 126.609 22.7574C126.388 22.0693 126.65 22.6255 126.088 22.1372L124.373 20.4499C123.91 19.9782 123.687 19.8545 123.209 19.358L120.966 17.0939C120.461 16.6777 120.288 16.4511 119.864 15.9669C119.571 15.6332 119.046 15.1882 118.706 14.8771C118.253 14.4609 117.696 14.189 117.974 13.4803L117.402 13.6389C116.837 12.8705 115.422 11.622 114.658 10.8844C113.739 9.99854 112.842 9.06114 111.845 8.07225C109.971 6.20982 108.149 4.39479 106.182 2.4788C105.648 1.95963 105.368 1.66502 104.81 1.11907C104.256 0.577232 104.072 0.0910235 102.929 0.0683613C99.8138 0.00861539 87.7348 -0.0758514 86.0392 0.134289L107.424 22.609C107.995 23.1777 107.91 23.1632 108.04 23.5856L108.038 23.5876Z" fill="url(#paint0_linear_1_73)"/>
<path fill-rule="evenodd" clip-rule="evenodd" d="M117.046 33.1309C117.143 32.7251 117.168 32.8693 116.842 32.4902L111.651 27.0822C110.738 26.2498 108.585 23.5633 108.037 23.5881C107.685 23.6643 97.2252 34.435 96.5659 35.0881L85.0762 46.8889C87.7936 47.165 98.1049 46.9466 102.112 46.9363C105.143 46.9281 104.475 46.7715 106.055 45.0574L117.048 33.1309H117.046Z" fill="url(#paint1_linear_1_73)"/>
<path fill-rule="evenodd" clip-rule="evenodd" d="M117.97 13.4801C117.692 14.1888 118.248 14.4607 118.7 14.8769C119.039 15.1901 119.565 15.633 119.857 15.9667C120.284 16.4509 120.455 16.6775 120.96 17.0937L123.203 19.3578C123.683 19.8544 123.904 19.978 124.367 20.4497L126.081 22.1371C126.644 22.6253 126.382 22.0691 126.602 22.7572C126.483 22.2565 126.569 22.7118 126.854 22.4646C127.291 22.3596 127.785 21.5829 128.156 21.1832L137.717 10.8245L120.434 10.7771L117.968 13.4821L117.97 13.4801Z" fill="url(#paint2_linear_1_73)"/>
<path d="M0.277361 46.4043V44.1558H0.679378V46.4043H0.277361ZM1.19359 46.4043V44.7012H1.58158V44.963H1.60807C1.64858 44.8705 1.70987 44.7983 1.79194 44.7464C1.874 44.6944 1.97633 44.6685 2.0989 44.6685C2.28901 44.6685 2.43444 44.7235 2.5352 44.8336C2.63597 44.9437 2.68635 45.1001 2.68635 45.3026V46.4043H2.29835V45.393C2.29835 45.2601 2.27031 45.1603 2.21421 45.0938C2.15916 45.0274 2.07293 44.9941 1.95555 44.9941C1.87868 44.9941 1.81219 45.0113 1.7561 45.0455C1.7 45.0798 1.65689 45.1281 1.62677 45.1905C1.59664 45.2528 1.58158 45.3265 1.58158 45.4117V46.4043H1.19359ZM3.87526 46.4386C3.70386 46.4386 3.55739 46.4033 3.43585 46.3326C3.31431 46.262 3.22133 46.1602 3.15693 46.0272C3.09252 45.8942 3.06032 45.7353 3.06032 45.5504V45.5473C3.06032 45.3634 3.09252 45.206 3.15693 45.0751C3.22133 44.9443 3.31431 44.844 3.43585 44.7744C3.55739 44.7038 3.70334 44.6685 3.8737 44.6685C4.02017 44.6685 4.14587 44.6939 4.25079 44.7448C4.35675 44.7947 4.44037 44.8643 4.50166 44.9536C4.56399 45.0419 4.60242 45.1453 4.61697 45.2637V45.2699H4.25079L4.24923 45.2652C4.23157 45.1821 4.19106 45.1141 4.12769 45.0611C4.06536 45.0081 3.98122 44.9817 3.87526 44.9817C3.78696 44.9817 3.71113 45.004 3.64776 45.0487C3.58543 45.0933 3.53765 45.1577 3.50441 45.2419C3.47117 45.326 3.45454 45.4278 3.45454 45.5473V45.5504C3.45454 45.6709 3.47117 45.7743 3.50441 45.8605C3.53869 45.9457 3.58699 46.0111 3.64932 46.0568C3.71165 46.1015 3.78696 46.1238 3.87526 46.1238C3.97602 46.1238 4.05705 46.101 4.11834 46.0553C4.18067 46.0096 4.22378 45.942 4.24767 45.8527L4.25079 45.8465L4.61541 45.8449L4.61385 45.8589C4.59515 45.9742 4.55464 46.0755 4.49231 46.1628C4.43102 46.25 4.34895 46.3181 4.24611 46.3669C4.14327 46.4147 4.01965 46.4386 3.87526 46.4386ZM5.55033 46.4386C5.4236 46.4386 5.31712 46.4142 5.2309 46.3653C5.14468 46.3155 5.07975 46.2433 5.03612 46.1488C4.99249 46.0532 4.97068 45.9379 4.97068 45.8028V44.7012H5.35867V45.714C5.35867 45.8459 5.38464 45.9451 5.43658 46.0116C5.48852 46.0781 5.57319 46.1114 5.69057 46.1114C5.7529 46.1114 5.80796 46.102 5.85574 46.0833C5.90456 46.0636 5.94508 46.0355 5.97728 45.9992C6.00948 45.9628 6.0339 45.9192 6.05052 45.8683C6.06714 45.8163 6.07545 45.7582 6.07545 45.6938V44.7012H6.46344V46.4043H6.07545V46.1456H6.04896C6.02299 46.2059 5.98663 46.2583 5.93988 46.303C5.89314 46.3466 5.83704 46.3804 5.7716 46.4043C5.70615 46.4272 5.6324 46.4386 5.55033 46.4386ZM7.88453 46.4323C7.80454 46.4323 7.7313 46.4209 7.66482 46.3981C7.59834 46.3742 7.53964 46.3404 7.48874 46.2968C7.43888 46.2521 7.39837 46.1991 7.3672 46.1378H7.34071V46.4043H6.95272V44.0421H7.34071V44.9723H7.3672C7.39733 44.911 7.43784 44.858 7.48874 44.8134C7.53964 44.7687 7.59885 44.7344 7.66638 44.7105C7.7339 44.6856 7.80662 44.6731 7.88453 44.6731C8.02788 44.6731 8.1515 44.709 8.25538 44.7806C8.3603 44.8513 8.44133 44.9526 8.49846 45.0845C8.55559 45.2154 8.58416 45.3712 8.58416 45.552V45.5551C8.58416 45.7337 8.55507 45.889 8.4969 46.021C8.43977 46.1529 8.35874 46.2547 8.25382 46.3264C8.14994 46.397 8.02684 46.4323 7.88453 46.4323ZM7.76299 46.1051C7.85128 46.1051 7.92712 46.0833 7.99048 46.0397C8.05385 45.995 8.10267 45.9316 8.13696 45.8496C8.17124 45.7675 8.18838 45.6693 8.18838 45.5551V45.552C8.18838 45.4377 8.17124 45.3395 8.13696 45.2575C8.10267 45.1744 8.05385 45.111 7.99048 45.0674C7.92712 45.0227 7.85128 45.0004 7.76299 45.0004C7.67573 45.0004 7.59989 45.0227 7.53549 45.0674C7.47108 45.112 7.42122 45.1754 7.3859 45.2575C7.35162 45.3395 7.33448 45.4377 7.33448 45.552V45.5551C7.33448 45.6683 7.35162 45.7665 7.3859 45.8496C7.42122 45.9316 7.47056 45.995 7.53393 46.0397C7.59834 46.0833 7.67469 46.1051 7.76299 46.1051ZM9.4365 46.4323C9.3295 46.4323 9.23341 46.4116 9.14823 46.37C9.06409 46.3285 8.9976 46.2698 8.94878 46.1939C8.901 46.1171 8.8771 46.0267 8.8771 45.9228V45.9197C8.8771 45.8189 8.90203 45.7322 8.9519 45.6595C9.00176 45.5857 9.075 45.5281 9.1716 45.4865C9.26821 45.445 9.3856 45.4205 9.52376 45.4133L10.1533 45.3743V45.6299L9.5783 45.6673C9.46922 45.6735 9.38871 45.6964 9.33677 45.7358C9.28483 45.7753 9.25886 45.8304 9.25886 45.901V45.9041C9.25886 45.9768 9.28639 46.0334 9.34145 46.074C9.39754 46.1145 9.4687 46.1347 9.55492 46.1347C9.63283 46.1347 9.70243 46.1191 9.76372 46.088C9.82501 46.0568 9.87332 46.0147 9.90864 45.9618C9.94396 45.9077 9.96162 45.847 9.96162 45.7795V45.2403C9.96162 45.1551 9.93461 45.0902 9.88059 45.0455C9.82657 44.9998 9.74658 44.977 9.64062 44.977C9.55233 44.977 9.48013 44.9926 9.42403 45.0237C9.36794 45.0539 9.33002 45.097 9.31029 45.1531L9.30873 45.1593H8.94255L8.94411 45.1453C8.95657 45.0497 8.99397 44.9661 9.0563 44.8944C9.11863 44.8227 9.20121 44.7671 9.30405 44.7277C9.40689 44.6882 9.52532 44.6685 9.65932 44.6685C9.80683 44.6685 9.93149 44.6913 10.0333 44.737C10.1351 44.7817 10.2125 44.8471 10.2655 44.9333C10.3184 45.0185 10.3449 45.1209 10.3449 45.2403V46.4043H9.96162V46.1706H9.93513C9.90396 46.2246 9.86345 46.2713 9.81359 46.3108C9.76476 46.3503 9.70867 46.3804 9.6453 46.4012C9.58193 46.422 9.51233 46.4323 9.4365 46.4323ZM11.4809 46.4121C11.2856 46.4121 11.1448 46.3762 11.0586 46.3046C10.9724 46.2329 10.9293 46.1155 10.9293 45.9524V45.0019H10.6644V44.7012H10.9293V44.2836H11.3235V44.7012H11.6819V45.0019H11.3235V45.8605C11.3235 45.9446 11.3411 46.0064 11.3765 46.0459C11.4128 46.0843 11.471 46.1036 11.551 46.1036C11.579 46.1036 11.6019 46.103 11.6195 46.102C11.6382 46.0999 11.659 46.0978 11.6819 46.0958V46.3949C11.6549 46.4001 11.6237 46.4043 11.5884 46.4074C11.5541 46.4105 11.5183 46.4121 11.4809 46.4121ZM12.7835 46.4386C12.6142 46.4386 12.4688 46.4027 12.3472 46.3311C12.2267 46.2594 12.1338 46.1576 12.0683 46.0257C12.0029 45.8937 11.9701 45.7374 11.9701 45.5566V45.5551C11.9701 45.3764 12.0023 45.2206 12.0668 45.0876C12.1322 44.9546 12.2247 44.8518 12.3441 44.7791C12.4636 44.7053 12.6038 44.6685 12.7648 44.6685C12.9269 44.6685 13.0661 44.7043 13.1824 44.776C13.2998 44.8466 13.3902 44.9458 13.4536 45.0736C13.5169 45.2014 13.5486 45.3509 13.5486 45.5224V45.6501H12.1649V45.3899H13.3585L13.1746 45.633V45.4787C13.1746 45.3655 13.1575 45.2715 13.1232 45.1967C13.0889 45.1219 13.0412 45.0658 12.9799 45.0284C12.9196 44.991 12.8495 44.9723 12.7695 44.9723C12.6895 44.9723 12.6184 44.992 12.556 45.0315C12.4947 45.07 12.4459 45.1271 12.4096 45.2029C12.3742 45.2777 12.3566 45.3696 12.3566 45.4787V45.6345C12.3566 45.7395 12.3742 45.8293 12.4096 45.9041C12.4449 45.9779 12.4947 46.035 12.5591 46.0755C12.6246 46.115 12.702 46.1347 12.7913 46.1347C12.8609 46.1347 12.9207 46.1249 12.9705 46.1051C13.0214 46.0843 13.0624 46.0599 13.0936 46.0319C13.1248 46.0028 13.1466 45.9753 13.1591 45.9493L13.1637 45.9384H13.5315L13.5284 45.9524C13.5148 46.0075 13.4899 46.0636 13.4536 46.1207C13.4182 46.1768 13.3699 46.2293 13.3086 46.2781C13.2484 46.3259 13.1746 46.3648 13.0874 46.3949C13.0001 46.424 12.8988 46.4386 12.7835 46.4386ZM14.5505 46.4323C14.4093 46.4323 14.2862 46.397 14.1812 46.3264C14.0763 46.2547 13.9953 46.1529 13.9382 46.021C13.881 45.889 13.8525 45.7337 13.8525 45.5551V45.552C13.8525 45.3712 13.8805 45.2154 13.9366 45.0845C13.9937 44.9526 14.0742 44.8513 14.1781 44.7806C14.283 44.709 14.4072 44.6731 14.5505 44.6731C14.6284 44.6731 14.7012 44.6856 14.7687 44.7105C14.8362 44.7344 14.8954 44.7687 14.9463 44.8134C14.9983 44.858 15.0388 44.911 15.0679 44.9723H15.0959V44.0421H15.4823V46.4043H15.0959V46.1378H15.0679C15.0367 46.1991 14.9957 46.2521 14.9448 46.2968C14.8949 46.3404 14.8367 46.3742 14.7702 46.3981C14.7038 46.4209 14.6305 46.4323 14.5505 46.4323ZM14.6721 46.1051C14.7604 46.1051 14.8362 46.0833 14.8996 46.0397C14.964 45.995 15.0133 45.9316 15.0476 45.8496C15.0829 45.7665 15.1006 45.6683 15.1006 45.5551V45.552C15.1006 45.4377 15.0829 45.3395 15.0476 45.2575C15.0133 45.1754 14.964 45.112 14.8996 45.0674C14.8362 45.0227 14.7604 45.0004 14.6721 45.0004C14.5848 45.0004 14.509 45.0227 14.4446 45.0674C14.3812 45.111 14.3324 45.1744 14.2981 45.2575C14.2638 45.3395 14.2467 45.4377 14.2467 45.552V45.5551C14.2467 45.6693 14.2638 45.7675 14.2981 45.8496C14.3324 45.9316 14.3812 45.995 14.4446 46.0397C14.5079 46.0833 14.5838 46.1051 14.6721 46.1051ZM17.7698 46.4323C17.6898 46.4323 17.6166 46.4209 17.5501 46.3981C17.4836 46.3742 17.4249 46.3404 17.374 46.2968C17.3241 46.2521 17.2836 46.1991 17.2525 46.1378H17.226V46.4043H16.838V44.0421H17.226V44.9723H17.2525C17.2826 44.911 17.3231 44.858 17.374 44.8134C17.4249 44.7687 17.4841 44.7344 17.5516 44.7105C17.6192 44.6856 17.6919 44.6731 17.7698 44.6731C17.9131 44.6731 18.0368 44.709 18.1406 44.7806C18.2456 44.8513 18.3266 44.9526 18.3837 45.0845C18.4409 45.2154 18.4694 45.3712 18.4694 45.552V45.5551C18.4694 45.7337 18.4403 45.889 18.3822 46.021C18.325 46.1529 18.244 46.2547 18.1391 46.3264C18.0352 46.397 17.9121 46.4323 17.7698 46.4323ZM17.6482 46.1051C17.7365 46.1051 17.8124 46.0833 17.8757 46.0397C17.9391 45.995 17.9879 45.9316 18.0222 45.8496C18.0565 45.7675 18.0736 45.6693 18.0736 45.5551V45.552C18.0736 45.4377 18.0565 45.3395 18.0222 45.2575C17.9879 45.1744 17.9391 45.111 17.8757 45.0674C17.8124 45.0227 17.7365 45.0004 17.6482 45.0004C17.561 45.0004 17.4852 45.0227 17.4208 45.0674C17.3563 45.112 17.3065 45.1754 17.2712 45.2575C17.2369 45.3395 17.2197 45.4377 17.2197 45.552V45.5551C17.2197 45.6683 17.2369 45.7665 17.2712 45.8496C17.3065 45.9316 17.3558 45.995 17.4192 46.0397C17.4836 46.0833 17.56 46.1051 17.6482 46.1051ZM18.9712 47.0026C18.9473 47.0026 18.9223 47.0021 18.8964 47.0011C18.8714 47.0001 18.847 46.9985 18.8231 46.9964V46.6988C18.8387 46.7009 18.8569 46.7019 18.8777 46.7019C18.8985 46.703 18.9187 46.7035 18.9384 46.7035C19.0184 46.7035 19.0823 46.6858 19.1301 46.6505C19.1789 46.6162 19.2137 46.5606 19.2345 46.4838L19.2548 46.4059L18.6455 44.7012H19.0693L19.5181 46.2095L19.4121 46.0319H19.5461L19.4433 46.2095L19.8921 44.7012H20.3003L19.6895 46.4417C19.6407 46.583 19.5846 46.6946 19.5212 46.7767C19.4578 46.8588 19.3815 46.9169 19.2922 46.9512C19.2039 46.9855 19.0969 47.0026 18.9712 47.0026ZM21.522 46.4043V44.1558H22.3649C22.5883 44.1558 22.7784 44.1994 22.9352 44.2867C23.0931 44.374 23.2136 44.5007 23.2967 44.6669C23.3809 44.8331 23.423 45.0336 23.423 45.2684V45.2715C23.423 45.5114 23.3814 45.7161 23.2983 45.8854C23.2152 46.0537 23.0947 46.1825 22.9368 46.2718C22.7799 46.3601 22.5893 46.4043 22.3649 46.4043H21.522ZM21.924 46.0662H22.312C22.4605 46.0662 22.5872 46.0355 22.6922 45.9742C22.7971 45.9129 22.8766 45.8236 22.9306 45.7062C22.9856 45.5888 23.0132 45.446 23.0132 45.2777V45.2746C23.0132 45.1105 22.9851 44.9702 22.929 44.8539C22.874 44.7365 22.794 44.6472 22.689 44.5859C22.5841 44.5246 22.4584 44.4939 22.312 44.4939H21.924V46.0662ZM24.0852 45.661V45.3369H24.6836C24.8279 45.3369 24.9401 45.3 25.0201 45.2263C25.1001 45.1515 25.1401 45.0466 25.1401 44.9115V44.9084C25.1401 44.7723 25.1001 44.6674 25.0201 44.5937C24.9401 44.5199 24.8279 44.483 24.6836 44.483H24.0852V44.1558H24.7817C24.9344 44.1558 25.0679 44.187 25.1822 44.2493C25.2964 44.3116 25.3858 44.3994 25.4502 44.5126C25.5146 44.6248 25.5468 44.7562 25.5468 44.9069V44.91C25.5468 45.0596 25.5146 45.191 25.4502 45.3042C25.3858 45.4164 25.2964 45.5042 25.1822 45.5675C25.0679 45.6299 24.9344 45.661 24.7817 45.661H24.0852ZM23.8842 46.4043V44.1558H24.2862V46.4043H23.8842ZM26.7716 46.4604C26.597 46.4604 26.4454 46.4334 26.3166 46.3794C26.1888 46.3253 26.088 46.25 26.0143 46.1534C25.9405 46.0568 25.899 45.9441 25.8896 45.8153L25.888 45.7935H26.2776L26.2792 45.8091C26.2854 45.8724 26.3103 45.9275 26.354 45.9742C26.3986 46.021 26.4578 46.0579 26.5316 46.0849C26.6053 46.1108 26.6895 46.1238 26.784 46.1238C26.8744 46.1238 26.9544 46.1098 27.024 46.0817C27.0936 46.0537 27.1481 46.0153 27.1876 45.9664C27.2271 45.9166 27.2468 45.8594 27.2468 45.795V45.7935C27.2468 45.7125 27.2151 45.6465 27.1518 45.5956C27.0884 45.5436 26.984 45.5021 26.8386 45.4709L26.597 45.4211C26.3664 45.3722 26.1986 45.2943 26.0937 45.1873C25.9898 45.0793 25.9379 44.9417 25.9379 44.7744V44.7729C25.9379 44.6388 25.9732 44.5215 26.0439 44.4207C26.1155 44.3199 26.2137 44.2415 26.3384 44.1854C26.4641 44.1283 26.6079 44.0997 26.77 44.0997C26.9362 44.0997 27.0801 44.1278 27.2016 44.1839C27.3232 44.2389 27.4187 44.3142 27.4883 44.4098C27.5579 44.5054 27.5969 44.6134 27.6052 44.7339L27.6067 44.7542H27.2234L27.2203 44.7355C27.211 44.6762 27.1866 44.6248 27.1471 44.5812C27.1086 44.5365 27.0572 44.5012 26.9928 44.4752C26.9284 44.4493 26.8531 44.4363 26.7669 44.4363C26.6848 44.4363 26.6116 44.4493 26.5472 44.4752C26.4828 44.5002 26.4319 44.5355 26.3945 44.5812C26.3581 44.6269 26.3399 44.682 26.3399 44.7464V44.7479C26.3399 44.8269 26.3706 44.8923 26.4319 44.9443C26.4942 44.9962 26.5955 45.0367 26.7357 45.0658L26.9772 45.1172C27.1351 45.1505 27.2634 45.1946 27.3621 45.2497C27.4608 45.3047 27.533 45.3733 27.5787 45.4553C27.6254 45.5364 27.6488 45.634 27.6488 45.7483V45.7499C27.6488 45.8953 27.613 46.021 27.5413 46.1269C27.4707 46.2329 27.3694 46.315 27.2375 46.3731C27.1066 46.4313 26.9513 46.4604 26.7716 46.4604ZM28.0088 46.998L28.1443 46.0615H28.5432L28.2737 46.998H28.0088ZM30.9398 46.4604C30.7268 46.4604 30.5429 46.4126 30.3881 46.317C30.2344 46.2215 30.1155 46.0859 30.0313 45.9103C29.9482 45.7337 29.9067 45.5244 29.9067 45.2824V45.2793C29.9067 45.0362 29.9482 44.8269 30.0313 44.6513C30.1155 44.4747 30.2344 44.3386 30.3881 44.2431C30.5419 44.1475 30.7252 44.0997 30.9382 44.0997C31.1086 44.0997 31.2623 44.1335 31.3994 44.201C31.5365 44.2675 31.6482 44.3599 31.7344 44.4784C31.8207 44.5957 31.8726 44.7308 31.8903 44.8835L31.8887 44.896H31.496L31.4945 44.8882C31.4758 44.7999 31.4405 44.723 31.3885 44.6575C31.3366 44.5911 31.2722 44.5396 31.1953 44.5033C31.1184 44.4659 31.0327 44.4472 30.9382 44.4472C30.8115 44.4472 30.7013 44.481 30.6079 44.5485C30.5144 44.616 30.4422 44.7121 30.3913 44.8367C30.3414 44.9604 30.3165 45.1073 30.3165 45.2777V45.2808C30.3165 45.4512 30.3414 45.5987 30.3913 45.7234C30.4422 45.848 30.5144 45.9441 30.6079 46.0116C30.7013 46.0792 30.812 46.1129 30.9398 46.1129C31.0353 46.1129 31.121 46.0963 31.1969 46.063C31.2737 46.0298 31.3376 45.9831 31.3885 45.9228C31.4405 45.8615 31.4758 45.7898 31.4945 45.7078L31.4976 45.6984H31.8903V45.7109C31.8705 45.8605 31.8181 45.9914 31.7329 46.1036C31.6477 46.2158 31.5376 46.3035 31.4025 46.3669C31.2675 46.4292 31.1132 46.4604 30.9398 46.4604ZM32.339 46.4043V44.1558H32.741V45.0907H33.8349V44.1558H34.2354V46.4043H33.8349V45.4289H32.741V46.4043H32.339ZM34.7916 46.4043V44.1558H35.7001C35.8611 44.1558 35.9992 44.1844 36.1146 44.2415C36.2299 44.2986 36.3182 44.3791 36.3795 44.483C36.4407 44.5869 36.4714 44.7105 36.4714 44.8539V44.857C36.4714 45.0055 36.434 45.1375 36.3592 45.2528C36.2854 45.3671 36.1821 45.4481 36.0491 45.4959L36.5399 46.4043H36.0818L35.6393 45.5582C35.6372 45.5582 35.6341 45.5582 35.63 45.5582C35.6258 45.5582 35.6222 45.5582 35.619 45.5582H35.1937V46.4043H34.7916ZM35.1937 45.2497H35.658C35.7858 45.2497 35.885 45.2159 35.9556 45.1484C36.0263 45.0809 36.0616 44.9868 36.0616 44.8663V44.8632C36.0616 44.7458 36.0247 44.6529 35.9509 44.5843C35.8782 44.5147 35.778 44.4799 35.6502 44.4799H35.1937V45.2497ZM36.9607 46.4043V44.1558H37.3627V46.4043H36.9607ZM38.6981 46.4604C38.5235 46.4604 38.3719 46.4334 38.2431 46.3794C38.1153 46.3253 38.0145 46.25 37.9408 46.1534C37.867 46.0568 37.8255 45.9441 37.8161 45.8153L37.8146 45.7935H38.2041L38.2057 45.8091C38.2119 45.8724 38.2368 45.9275 38.2805 45.9742C38.3251 46.021 38.3843 46.0579 38.4581 46.0849C38.5319 46.1108 38.616 46.1238 38.7105 46.1238C38.8009 46.1238 38.8809 46.1098 38.9505 46.0817C39.0201 46.0537 39.0746 46.0153 39.1141 45.9664C39.1536 45.9166 39.1733 45.8594 39.1733 45.795V45.7935C39.1733 45.7125 39.1416 45.6465 39.0783 45.5956C39.0149 45.5436 38.9105 45.5021 38.7651 45.4709L38.5235 45.4211C38.2929 45.3722 38.1252 45.2943 38.0202 45.1873C37.9164 45.0793 37.8644 44.9417 37.8644 44.7744V44.7729C37.8644 44.6388 37.8997 44.5215 37.9704 44.4207C38.0421 44.3199 38.1402 44.2415 38.2649 44.1854C38.3906 44.1283 38.5345 44.0997 38.6965 44.0997C38.8627 44.0997 39.0066 44.1278 39.1281 44.1839C39.2497 44.2389 39.3452 44.3142 39.4148 44.4098C39.4844 44.5054 39.5234 44.6134 39.5317 44.7339L39.5333 44.7542H39.1499L39.1468 44.7355C39.1375 44.6762 39.1131 44.6248 39.0736 44.5812C39.0352 44.5365 38.9837 44.5012 38.9193 44.4752C38.8549 44.4493 38.7796 44.4363 38.6934 44.4363C38.6113 44.4363 38.5381 44.4493 38.4737 44.4752C38.4093 44.5002 38.3584 44.5355 38.321 44.5812C38.2846 44.6269 38.2664 44.682 38.2664 44.7464V44.7479C38.2664 44.8269 38.2971 44.8923 38.3584 44.9443C38.4207 44.9962 38.522 45.0367 38.6622 45.0658L38.9037 45.1172C39.0616 45.1505 39.1899 45.1946 39.2886 45.2497C39.3873 45.3047 39.4595 45.3733 39.5052 45.4553C39.552 45.5364 39.5753 45.634 39.5753 45.7483V45.7499C39.5753 45.8953 39.5395 46.021 39.4678 46.1269C39.3972 46.2329 39.2959 46.315 39.164 46.3731C39.0331 46.4313 38.8778 46.4604 38.6981 46.4604ZM40.5866 46.4043V44.4939H39.8948V44.1558H41.6805V44.4939H40.9886V46.4043H40.5866ZM43.4896 46.9699C43.3857 46.8401 43.3 46.6988 43.2324 46.5461C43.166 46.3944 43.1161 46.2319 43.0829 46.0584C43.0507 45.8849 43.0346 45.7005 43.0346 45.5052C43.0346 45.3089 43.0507 45.1245 43.0829 44.952C43.1161 44.7786 43.166 44.616 43.2324 44.4643C43.3 44.3116 43.3857 44.1709 43.4896 44.0421H43.837C43.7799 44.1148 43.7264 44.2057 43.6765 44.3147C43.6277 44.4238 43.5851 44.5443 43.5488 44.6762C43.5124 44.8071 43.4838 44.9437 43.4631 45.0861C43.4423 45.2273 43.4319 45.3671 43.4319 45.5052C43.4319 45.6434 43.4423 45.7836 43.4631 45.9259C43.4838 46.0672 43.5124 46.2038 43.5488 46.3357C43.5851 46.4677 43.6277 46.5882 43.6765 46.6972C43.7264 46.8063 43.7799 46.8972 43.837 46.9699H43.4896ZM44.2687 46.4043V44.1558H45.1116C45.335 44.1558 45.5251 44.1994 45.6819 44.2867C45.8398 44.374 45.9603 44.5007 46.0434 44.6669C46.1276 44.8331 46.1697 45.0336 46.1697 45.2684V45.2715C46.1697 45.5114 46.1281 45.7161 46.045 45.8854C45.9619 46.0537 45.8414 46.1825 45.6835 46.2718C45.5266 46.3601 45.336 46.4043 45.1116 46.4043H44.2687ZM44.6707 46.0662H45.0587C45.2072 46.0662 45.3339 46.0355 45.4389 45.9742C45.5438 45.9129 45.6233 45.8236 45.6773 45.7062C45.7323 45.5888 45.7599 45.446 45.7599 45.2777V45.2746C45.7599 45.1105 45.7318 44.9702 45.6757 44.8539C45.6207 44.7365 45.5407 44.6472 45.4357 44.5859C45.3308 44.5246 45.2051 44.4939 45.0587 44.4939H44.6707V46.0662ZM47.3196 46.4386C47.1503 46.4386 47.0049 46.4027 46.8833 46.3311C46.7628 46.2594 46.6699 46.1576 46.6044 46.0257C46.539 45.8937 46.5062 45.7374 46.5062 45.5566V45.5551C46.5062 45.3764 46.5384 45.2206 46.6028 45.0876C46.6683 44.9546 46.7607 44.8518 46.8802 44.7791C46.9997 44.7053 47.1399 44.6685 47.3009 44.6685C47.463 44.6685 47.6022 44.7043 47.7185 44.776C47.8359 44.8466 47.9263 44.9458 47.9897 45.0736C48.053 45.2014 48.0847 45.3509 48.0847 45.5224V45.6501H46.701V45.3899H47.8946L47.7107 45.633V45.4787C47.7107 45.3655 47.6936 45.2715 47.6593 45.1967C47.625 45.1219 47.5772 45.0658 47.516 45.0284C47.4557 44.991 47.3856 44.9723 47.3056 44.9723C47.2256 44.9723 47.1545 44.992 47.0921 45.0315C47.0308 45.07 46.982 45.1271 46.9457 45.2029C46.9103 45.2777 46.8927 45.3696 46.8927 45.4787V45.6345C46.8927 45.7395 46.9103 45.8293 46.9457 45.9041C46.981 45.9779 47.0308 46.035 47.0952 46.0755C47.1607 46.115 47.2381 46.1347 47.3274 46.1347C47.397 46.1347 47.4567 46.1249 47.5066 46.1051C47.5575 46.0843 47.5985 46.0599 47.6297 46.0319C47.6609 46.0028 47.6827 45.9753 47.6952 45.9493L47.6998 45.9384H48.0676L48.0644 45.9524C48.0509 46.0075 48.026 46.0636 47.9897 46.1207C47.9543 46.1768 47.906 46.2293 47.8447 46.2781C47.7845 46.3259 47.7107 46.3648 47.6235 46.3949C47.5362 46.424 47.4349 46.4386 47.3196 46.4386ZM49.2019 46.4386C49.0326 46.4386 48.8872 46.4027 48.7656 46.3311C48.6451 46.2594 48.5522 46.1576 48.4867 46.0257C48.4213 45.8937 48.3886 45.7374 48.3886 45.5566V45.5551C48.3886 45.3764 48.4208 45.2206 48.4852 45.0876C48.5506 44.9546 48.6431 44.8518 48.7625 44.7791C48.882 44.7053 49.0222 44.6685 49.1832 44.6685C49.3453 44.6685 49.4845 44.7043 49.6008 44.776C49.7182 44.8466 49.8086 44.9458 49.872 45.0736C49.9353 45.2014 49.967 45.3509 49.967 45.5224V45.6501H48.5833V45.3899H49.7769L49.593 45.633V45.4787C49.593 45.3655 49.5759 45.2715 49.5416 45.1967C49.5073 45.1219 49.4596 45.0658 49.3983 45.0284C49.338 44.991 49.2679 44.9723 49.1879 44.9723C49.1079 44.9723 49.0368 44.992 48.9744 45.0315C48.9131 45.07 48.8643 45.1271 48.828 45.2029C48.7926 45.2777 48.775 45.3696 48.775 45.4787V45.6345C48.775 45.7395 48.7926 45.8293 48.828 45.9041C48.8633 45.9779 48.9131 46.035 48.9776 46.0755C49.043 46.115 49.1204 46.1347 49.2097 46.1347C49.2793 46.1347 49.3391 46.1249 49.3889 46.1051C49.4398 46.0843 49.4809 46.0599 49.512 46.0319C49.5432 46.0028 49.565 45.9753 49.5775 45.9493L49.5821 45.9384H49.9499L49.9468 45.9524C49.9333 46.0075 49.9083 46.0636 49.872 46.1207C49.8366 46.1768 49.7883 46.2293 49.7271 46.2781C49.6668 46.3259 49.593 46.3648 49.5058 46.3949C49.4185 46.424 49.3172 46.4386 49.2019 46.4386ZM50.355 46.4043V44.7012H50.743V44.9661H50.7695C50.8058 44.8715 50.8645 44.7983 50.9456 44.7464C51.0276 44.6944 51.1248 44.6685 51.237 44.6685C51.3138 44.6685 51.3829 44.6809 51.4442 44.7059C51.5065 44.7308 51.56 44.7661 51.6047 44.8118C51.6494 44.8575 51.6836 44.9121 51.7075 44.9754H51.7356C51.7636 44.9141 51.8026 44.8606 51.8524 44.8149C51.9033 44.7682 51.9626 44.7323 52.0301 44.7074C52.0986 44.6814 52.1724 44.6685 52.2513 44.6685C52.3656 44.6685 52.4633 44.6913 52.5443 44.737C52.6264 44.7817 52.6892 44.8461 52.7328 44.9302C52.7775 45.0144 52.7998 45.1151 52.7998 45.2325V46.4043H52.4118V45.3276C52.4118 45.2528 52.4004 45.191 52.3776 45.1421C52.3557 45.0933 52.322 45.0564 52.2763 45.0315C52.2306 45.0066 52.1729 44.9941 52.1033 44.9941C52.0358 44.9941 51.9771 45.0097 51.9272 45.0409C51.8774 45.071 51.8384 45.112 51.8104 45.164C51.7834 45.2159 51.7699 45.2746 51.7699 45.34V46.4043H51.3819V45.2995C51.3819 45.2362 51.3694 45.1816 51.3445 45.1359C51.3206 45.0902 51.2853 45.0554 51.2385 45.0315C51.1928 45.0066 51.1383 44.9941 51.0749 44.9941C51.0115 44.9941 50.9544 45.0107 50.9035 45.044C50.8536 45.0762 50.8142 45.1209 50.7851 45.178C50.757 45.2341 50.743 45.2975 50.743 45.3681V46.4043H50.355ZM53.9856 46.4386C53.8163 46.4386 53.6709 46.4027 53.5493 46.3311C53.4288 46.2594 53.3359 46.1576 53.2704 46.0257C53.205 45.8937 53.1722 45.7374 53.1722 45.5566V45.5551C53.1722 45.3764 53.2044 45.2206 53.2689 45.0876C53.3343 44.9546 53.4268 44.8518 53.5462 44.7791C53.6657 44.7053 53.8059 44.6685 53.9669 44.6685C54.129 44.6685 54.2682 44.7043 54.3845 44.776C54.5019 44.8466 54.5923 44.9458 54.6557 45.0736C54.719 45.2014 54.7507 45.3509 54.7507 45.5224V45.6501H53.367V45.3899H54.5606L54.3767 45.633V45.4787C54.3767 45.3655 54.3596 45.2715 54.3253 45.1967C54.291 45.1219 54.2433 45.0658 54.182 45.0284C54.1217 44.991 54.0516 44.9723 53.9716 44.9723C53.8916 44.9723 53.8205 44.992 53.7581 45.0315C53.6968 45.07 53.648 45.1271 53.6117 45.2029C53.5763 45.2777 53.5587 45.3696 53.5587 45.4787V45.6345C53.5587 45.7395 53.5763 45.8293 53.6117 45.9041C53.647 45.9779 53.6968 46.035 53.7612 46.0755C53.8267 46.115 53.9041 46.1347 53.9934 46.1347C54.063 46.1347 54.1228 46.1249 54.1726 46.1051C54.2235 46.0843 54.2645 46.0599 54.2957 46.0319C54.3269 46.0028 54.3487 45.9753 54.3612 45.9493L54.3658 45.9384H54.7336L54.7305 45.9524C54.7169 46.0075 54.692 46.0636 54.6557 46.1207C54.6203 46.1768 54.572 46.2293 54.5107 46.2781C54.4505 46.3259 54.3767 46.3648 54.2895 46.3949C54.2022 46.424 54.1009 46.4386 53.9856 46.4386ZM55.7526 46.4323C55.6114 46.4323 55.4883 46.397 55.3833 46.3264C55.2784 46.2547 55.1974 46.1529 55.1403 46.021C55.0831 45.889 55.0546 45.7337 55.0546 45.5551V45.552C55.0546 45.3712 55.0826 45.2154 55.1387 45.0845C55.1958 44.9526 55.2763 44.8513 55.3802 44.7806C55.4851 44.709 55.6093 44.6731 55.7526 44.6731C55.8305 44.6731 55.9033 44.6856 55.9708 44.7105C56.0383 44.7344 56.0975 44.7687 56.1484 44.8134C56.2004 44.858 56.2409 44.911 56.27 44.9723H56.298V44.0421H56.6844V46.4043H56.298V46.1378H56.27C56.2388 46.1991 56.1978 46.2521 56.1469 46.2968C56.097 46.3404 56.0388 46.3742 55.9723 46.3981C55.9059 46.4209 55.8326 46.4323 55.7526 46.4323ZM55.8742 46.1051C55.9625 46.1051 56.0383 46.0833 56.1017 46.0397C56.1661 45.995 56.2154 45.9316 56.2497 45.8496C56.285 45.7665 56.3027 45.6683 56.3027 45.5551V45.552C56.3027 45.4377 56.285 45.3395 56.2497 45.2575C56.2154 45.1754 56.1661 45.112 56.1017 45.0674C56.0383 45.0227 55.9625 45.0004 55.8742 45.0004C55.7869 45.0004 55.7111 45.0227 55.6467 45.0674C55.5833 45.111 55.5345 45.1744 55.5002 45.2575C55.4659 45.3395 55.4488 45.4377 55.4488 45.552V45.5551C55.4488 45.6693 55.4659 45.7675 55.5002 45.8496C55.5345 45.9316 55.5833 45.995 55.6467 46.0397C55.71 46.0833 55.7859 46.1051 55.8742 46.1051ZM58.6945 46.4121C58.4992 46.4121 58.3585 46.3762 58.2723 46.3046C58.186 46.2329 58.1429 46.1155 58.1429 45.9524V45.0019H57.878V44.7012H58.1429V44.2836H58.5372V44.7012H58.8955V45.0019H58.5372V45.8605C58.5372 45.9446 58.5548 46.0064 58.5901 46.0459C58.6265 46.0843 58.6847 46.1036 58.7647 46.1036C58.7927 46.1036 58.8156 46.103 58.8332 46.102C58.8519 46.0999 58.8727 46.0978 58.8955 46.0958V46.3949C58.8685 46.4001 58.8374 46.4043 58.802 46.4074C58.7678 46.4105 58.7319 46.4121 58.6945 46.4121ZM60.0034 46.4386C59.8341 46.4386 59.6881 46.4033 59.5656 46.3326C59.443 46.2609 59.3485 46.1591 59.282 46.0272C59.2165 45.8953 59.1838 45.7374 59.1838 45.5535V45.5504C59.1838 45.3686 59.2171 45.2117 59.2835 45.0798C59.35 44.9469 59.444 44.8451 59.5656 44.7744C59.6881 44.7038 59.8341 44.6685 60.0034 44.6685C60.1728 44.6685 60.3182 44.7038 60.4397 44.7744C60.5623 44.8451 60.6568 44.9463 60.7233 45.0783C60.7898 45.2102 60.823 45.3676 60.823 45.5504V45.5535C60.823 45.7374 60.7898 45.8953 60.7233 46.0272C60.6579 46.1591 60.5639 46.2609 60.4413 46.3326C60.3197 46.4033 60.1738 46.4386 60.0034 46.4386ZM60.0034 46.1238C60.0928 46.1238 60.1686 46.1015 60.2309 46.0568C60.2943 46.0111 60.3426 45.9462 60.3758 45.862C60.4091 45.7769 60.4257 45.6745 60.4257 45.5551V45.552C60.4257 45.4315 60.4091 45.3291 60.3758 45.245C60.3426 45.1598 60.2943 45.0949 60.2309 45.0502C60.1686 45.0045 60.0928 44.9817 60.0034 44.9817C59.9141 44.9817 59.8377 45.0045 59.7744 45.0502C59.711 45.0949 59.6627 45.1598 59.6295 45.245C59.5962 45.3291 59.5796 45.4315 59.5796 45.552V45.5551C59.5796 45.6745 59.5962 45.7769 59.6295 45.862C59.6627 45.9472 59.7105 46.0121 59.7728 46.0568C59.8362 46.1015 59.9131 46.1238 60.0034 46.1238ZM63.0108 46.4323C62.9308 46.4323 62.8575 46.4209 62.7911 46.3981C62.7246 46.3742 62.6659 46.3404 62.615 46.2968C62.5651 46.2521 62.5246 46.1991 62.4934 46.1378H62.4669V46.4043H62.079V44.0421H62.4669V44.9723H62.4934C62.5236 44.911 62.5641 44.858 62.615 44.8134C62.6659 44.7687 62.7251 44.7344 62.7926 44.7105C62.8601 44.6856 62.9329 44.6731 63.0108 44.6731C63.1541 44.6731 63.2777 44.709 63.3816 44.7806C63.4865 44.8513 63.5676 44.9526 63.6247 45.0845C63.6818 45.2154 63.7104 45.3712 63.7104 45.552V45.5551C63.7104 45.7337 63.6813 45.889 63.6231 46.021C63.566 46.1529 63.485 46.2547 63.3801 46.3264C63.2762 46.397 63.1531 46.4323 63.0108 46.4323ZM62.8892 46.1051C62.9775 46.1051 63.0534 46.0833 63.1167 46.0397C63.1801 45.995 63.2289 45.9316 63.2632 45.8496C63.2975 45.7675 63.3146 45.6693 63.3146 45.5551V45.552C63.3146 45.4377 63.2975 45.3395 63.2632 45.2575C63.2289 45.1744 63.1801 45.111 63.1167 45.0674C63.0534 45.0227 62.9775 45.0004 62.8892 45.0004C62.802 45.0004 62.7261 45.0227 62.6617 45.0674C62.5973 45.112 62.5475 45.1754 62.5121 45.2575C62.4779 45.3395 62.4607 45.4377 62.4607 45.552V45.5551C62.4607 45.6683 62.4779 45.7665 62.5121 45.8496C62.5475 45.9316 62.5968 45.995 62.6602 46.0397C62.7246 46.0833 62.8009 46.1051 62.8892 46.1051ZM64.8276 46.4386C64.6583 46.4386 64.5129 46.4027 64.3913 46.3311C64.2708 46.2594 64.1779 46.1576 64.1124 46.0257C64.047 45.8937 64.0142 45.7374 64.0142 45.5566V45.5551C64.0142 45.3764 64.0465 45.2206 64.1109 45.0876C64.1763 44.9546 64.2688 44.8518 64.3882 44.7791C64.5077 44.7053 64.6479 44.6685 64.8089 44.6685C64.971 44.6685 65.1102 44.7043 65.2265 44.776C65.3439 44.8466 65.4343 44.9458 65.4977 45.0736C65.561 45.2014 65.5927 45.3509 65.5927 45.5224V45.6501H64.209V45.3899H65.4026L65.2187 45.633V45.4787C65.2187 45.3655 65.2016 45.2715 65.1673 45.1967C65.133 45.1219 65.0853 45.0658 65.024 45.0284C64.9637 44.991 64.8936 44.9723 64.8136 44.9723C64.7336 44.9723 64.6625 44.992 64.6001 45.0315C64.5388 45.07 64.49 45.1271 64.4537 45.2029C64.4183 45.2777 64.4007 45.3696 64.4007 45.4787V45.6345C64.4007 45.7395 64.4183 45.8293 64.4537 45.9041C64.489 45.9779 64.5388 46.035 64.6033 46.0755C64.6687 46.115 64.7461 46.1347 64.8354 46.1347C64.905 46.1347 64.9648 46.1249 65.0146 46.1051C65.0655 46.0843 65.1066 46.0599 65.1377 46.0319C65.1689 46.0028 65.1907 45.9753 65.2032 45.9493L65.2078 45.9384H65.5756L65.5725 45.9524C65.559 46.0075 65.534 46.0636 65.4977 46.1207C65.4623 46.1768 65.414 46.2293 65.3527 46.2781C65.2925 46.3259 65.2187 46.3648 65.1315 46.3949C65.0442 46.424 64.9429 46.4386 64.8276 46.4386ZM67.7945 46.4604C67.6054 46.4604 67.4418 46.4256 67.3036 46.356C67.1655 46.2864 67.0585 46.1893 66.9826 46.0646C66.9078 45.94 66.8704 45.795 66.8704 45.6299V44.1558H67.2709V45.5971C67.2709 45.7 67.2912 45.7904 67.3317 45.8683C67.3732 45.9451 67.433 46.0054 67.5109 46.049C67.5888 46.0916 67.6838 46.1129 67.796 46.1129C67.9072 46.1129 68.0017 46.0916 68.0796 46.049C68.1575 46.0054 68.2167 45.9451 68.2572 45.8683C68.2978 45.7904 68.318 45.7 68.318 45.5971V44.1558H68.7185V45.6299C68.7185 45.795 68.6811 45.94 68.6063 46.0646C68.5315 46.1893 68.425 46.2864 68.2869 46.356C68.1497 46.4256 67.9856 46.4604 67.7945 46.4604ZM69.2311 46.4043V44.7012H69.6191V44.963H69.6456C69.6861 44.8705 69.7474 44.7983 69.8295 44.7464C69.9115 44.6944 70.0139 44.6685 70.1364 44.6685C70.3265 44.6685 70.472 44.7235 70.5727 44.8336C70.6735 44.9437 70.7239 45.1001 70.7239 45.3026V46.4043H70.3359V45.393C70.3359 45.2601 70.3078 45.1603 70.2518 45.0938C70.1967 45.0274 70.1105 44.9941 69.9931 44.9941C69.9162 44.9941 69.8497 45.0113 69.7936 45.0455C69.7375 45.0798 69.6944 45.1281 69.6643 45.1905C69.6342 45.2528 69.6191 45.3265 69.6191 45.4117V46.4043H69.2311ZM71.1867 46.4043V44.7012H71.5731V46.4043H71.1867ZM71.3815 44.416C71.3181 44.416 71.2635 44.3937 71.2178 44.349C71.1721 44.3044 71.1493 44.2509 71.1493 44.1885C71.1493 44.1241 71.1721 44.0701 71.2178 44.0265C71.2635 43.9818 71.3181 43.9595 71.3815 43.9595C71.4448 43.9595 71.4988 43.9818 71.5435 44.0265C71.5892 44.0701 71.6121 44.1241 71.6121 44.1885C71.6121 44.2509 71.5892 44.3044 71.5435 44.349C71.4988 44.3937 71.4448 44.416 71.3815 44.416ZM72.5096 46.4043L71.9035 44.7012H72.3179L72.7106 46.0257H72.7387L73.1298 44.7012H73.538L72.9334 46.4043H72.5096ZM74.5259 46.4386C74.3566 46.4386 74.2112 46.4027 74.0896 46.3311C73.9691 46.2594 73.8761 46.1576 73.8107 46.0257C73.7452 45.8937 73.7125 45.7374 73.7125 45.5566V45.5551C73.7125 45.3764 73.7447 45.2206 73.8091 45.0876C73.8746 44.9546 73.967 44.8518 74.0865 44.7791C74.206 44.7053 74.3462 44.6685 74.5072 44.6685C74.6693 44.6685 74.8085 44.7043 74.9248 44.776C75.0422 44.8466 75.1326 44.9458 75.1959 45.0736C75.2593 45.2014 75.291 45.3509 75.291 45.5224V45.6501H73.9073V45.3899H75.1009L74.917 45.633V45.4787C74.917 45.3655 74.8999 45.2715 74.8656 45.1967C74.8313 45.1219 74.7835 45.0658 74.7222 45.0284C74.662 44.991 74.5919 44.9723 74.5119 44.9723C74.4319 44.9723 74.3607 44.992 74.2984 45.0315C74.2371 45.07 74.1883 45.1271 74.1519 45.2029C74.1166 45.2777 74.099 45.3696 74.099 45.4787V45.6345C74.099 45.7395 74.1166 45.8293 74.1519 45.9041C74.1873 45.9779 74.2371 46.035 74.3015 46.0755C74.367 46.115 74.4444 46.1347 74.5337 46.1347C74.6033 46.1347 74.663 46.1249 74.7129 46.1051C74.7638 46.0843 74.8048 46.0599 74.836 46.0319C74.8672 46.0028 74.889 45.9753 74.9014 45.9493L74.9061 45.9384H75.2738L75.2707 45.9524C75.2572 46.0075 75.2323 46.0636 75.1959 46.1207C75.1606 46.1768 75.1123 46.2293 75.051 46.2781C74.9908 46.3259 74.917 46.3648 74.8298 46.3949C74.7425 46.424 74.6412 46.4386 74.5259 46.4386ZM75.679 46.4043V44.7012H76.067V44.963H76.0935C76.1226 44.8715 76.1745 44.8004 76.2493 44.7495C76.3251 44.6986 76.4191 44.6731 76.5313 44.6731C76.5604 44.6731 76.589 44.6752 76.617 44.6794C76.6461 44.6825 76.67 44.6866 76.6887 44.6918V45.0393C76.6575 45.032 76.6259 45.0268 76.5937 45.0237C76.5625 45.0196 76.5298 45.0175 76.4955 45.0175C76.4093 45.0175 76.334 45.0336 76.2695 45.0658C76.2051 45.098 76.1553 45.1442 76.12 45.2045C76.0846 45.2637 76.067 45.3338 76.067 45.4148V46.4043H75.679ZM77.6096 46.4386C77.4652 46.4386 77.3406 46.4183 77.2356 46.3778C77.1318 46.3363 77.0497 46.2791 76.9894 46.2064C76.9292 46.1326 76.8933 46.0475 76.8819 45.9509V45.9477H77.2668L77.2684 45.9509C77.2891 46.0101 77.3281 46.0584 77.3852 46.0958C77.4424 46.1332 77.5192 46.1519 77.6158 46.1519C77.6802 46.1519 77.7369 46.143 77.7857 46.1254C77.8345 46.1067 77.8729 46.0812 77.901 46.049C77.929 46.0168 77.9431 45.9794 77.9431 45.9368V45.9337C77.9431 45.8839 77.9228 45.8423 77.8823 45.8091C77.8418 45.7748 77.7748 45.7473 77.6813 45.7265L77.4055 45.6641C77.2974 45.6403 77.2081 45.607 77.1375 45.5644C77.0668 45.5218 77.0138 45.4694 76.9785 45.407C76.9443 45.3447 76.9271 45.272 76.9271 45.1889V45.1873C76.9271 45.0845 76.9557 44.9941 77.0128 44.9162C77.071 44.8383 77.1515 44.7775 77.2543 44.7339C77.3572 44.6903 77.4756 44.6685 77.6096 44.6685C77.7478 44.6685 77.8667 44.6892 77.9664 44.7308C78.0662 44.7723 78.1441 44.8295 78.2002 44.9022C78.2563 44.9749 78.2885 45.0575 78.2968 45.1499V45.1531H77.9322L77.9306 45.1484C77.9161 45.0944 77.8813 45.0487 77.8262 45.0113C77.7722 44.9728 77.6995 44.9536 77.608 44.9536C77.5509 44.9536 77.4995 44.9624 77.4538 44.9801C77.4091 44.9978 77.3738 45.0227 77.3478 45.0549C77.3229 45.0861 77.3104 45.1229 77.3104 45.1655V45.1671C77.3104 45.2003 77.3187 45.2294 77.3354 45.2543C77.353 45.2793 77.3805 45.3011 77.4179 45.3198C77.4553 45.3385 77.5047 45.3551 77.566 45.3696L77.8418 45.4304C78.009 45.4678 78.1326 45.5234 78.2126 45.5971C78.2926 45.6709 78.3326 45.7701 78.3326 45.8948V45.8979C78.3326 46.0059 78.3014 46.1004 78.2391 46.1815C78.1768 46.2625 78.0911 46.3259 77.982 46.3716C77.8729 46.4162 77.7488 46.4386 77.6096 46.4386ZM78.7284 46.4043V44.7012H79.1148V46.4043H78.7284ZM78.9232 44.416C78.8598 44.416 78.8053 44.3937 78.7596 44.349C78.7139 44.3044 78.691 44.2509 78.691 44.1885C78.691 44.1241 78.7139 44.0701 78.7596 44.0265C78.8053 43.9818 78.8598 43.9595 78.9232 43.9595C78.9865 43.9595 79.0406 43.9818 79.0852 44.0265C79.1309 44.0701 79.1538 44.1241 79.1538 44.1885C79.1538 44.2509 79.1309 44.3044 79.0852 44.349C79.0406 44.3937 78.9865 44.416 78.9232 44.416ZM80.2632 46.4121C80.0679 46.4121 79.9272 46.3762 79.841 46.3046C79.7547 46.2329 79.7116 46.1155 79.7116 45.9524V45.0019H79.4467V44.7012H79.7116V44.2836H80.1059V44.7012H80.4642V45.0019H80.1059V45.8605C80.1059 45.9446 80.1235 46.0064 80.1588 46.0459C80.1952 46.0843 80.2534 46.1036 80.3333 46.1036C80.3614 46.1036 80.3843 46.103 80.4019 46.102C80.4206 46.0999 80.4414 46.0978 80.4642 46.0958V46.3949C80.4372 46.4001 80.4061 46.4043 80.3707 46.4074C80.3365 46.4105 80.3006 46.4121 80.2632 46.4121ZM81.0345 47.0026C81.0107 47.0026 80.9857 47.0021 80.9598 47.0011C80.9348 47.0001 80.9104 46.9985 80.8865 46.9964V46.6988C80.9021 46.7009 80.9203 46.7019 80.9411 46.7019C80.9618 46.703 80.9821 46.7035 81.0018 46.7035C81.0818 46.7035 81.1457 46.6858 81.1935 46.6505C81.2423 46.6162 81.2771 46.5606 81.2979 46.4838L81.3181 46.4059L80.7089 44.7012H81.1327L81.5815 46.2095L81.4755 46.0319H81.6095L81.5067 46.2095L81.9554 44.7012H82.3637L81.7529 46.4417C81.7041 46.583 81.648 46.6946 81.5846 46.7767C81.5212 46.8588 81.4449 46.9169 81.3555 46.9512C81.2672 46.9855 81.1602 47.0026 81.0345 47.0026ZM82.9574 46.9699H82.6083C82.6665 46.8972 82.72 46.8063 82.7688 46.6972C82.8187 46.5882 82.8618 46.4677 82.8982 46.3357C82.9345 46.2038 82.9626 46.0672 82.9823 45.9259C83.0031 45.7836 83.0135 45.6434 83.0135 45.5052C83.0135 45.3671 83.0031 45.2273 82.9823 45.0861C82.9626 44.9437 82.9345 44.8071 82.8982 44.6762C82.8618 44.5443 82.8187 44.4238 82.7688 44.3147C82.72 44.2057 82.6665 44.1148 82.6083 44.0421H82.9574C83.0612 44.1709 83.1464 44.3116 83.2129 44.4643C83.2804 44.616 83.3303 44.7786 83.3625 44.952C83.3957 45.1245 83.4124 45.3089 83.4124 45.5052C83.4124 45.7005 83.3957 45.8849 83.3625 46.0584C83.3303 46.2319 83.2804 46.3944 83.2129 46.5461C83.1464 46.6988 83.0612 46.8401 82.9574 46.9699Z" fill="white"/>
<path d="M0.0262451 41.8813H80.2052" stroke="#AFAFE8" stroke-width="0.20602" stroke-miterlimit="10"/>
<defs>
<linearGradient id="paint0_linear_1_73" x1="85.5592" y1="4.03013" x2="138.049" y2="32.0386" gradientUnits="userSpaceOnUse">
<stop stop-color="#BD22FF"/>
<stop offset="0.51" stop-color="#BD22FF" stop-opacity="0"/>
<stop offset="1" stop-color="#FFBA08"/>
</linearGradient>
<linearGradient id="paint1_linear_1_73" x1="83.496" y1="28.8498" x2="115.738" y2="44.5815" gradientUnits="userSpaceOnUse">
<stop stop-color="#BD22FF"/>
<stop offset="0.51" stop-color="#BD22FF" stop-opacity="0"/>
<stop offset="1" stop-color="#FFBA08"/>
</linearGradient>
<linearGradient id="paint2_linear_1_73" x1="119.406" y1="9.25461" x2="137.719" y2="20.0707" gradientUnits="userSpaceOnUse">
<stop stop-color="#BD22FF"/>
<stop offset="0.51" stop-color="#BD22FF" stop-opacity="0"/>
<stop offset="1" stop-color="#FFBA08"/>
</linearGradient>
</defs>
</svg>
