<svg width="72" height="25" viewBox="0 0 72 25" fill="none" xmlns="http://www.w3.org/2000/svg">
<g clip-path="url(#clip0_1_181)">
<path d="M0 11.9459H4.7013V24.0973C27.1376 24.0973 0.51967 24.0973 22.5509 24.0973V11.9459H27.2522L13.6261 1.11156L0 11.9459Z" fill="#3299FE"/>
<path d="M6.79783 6.53838L5.41406 7.64385L5.7888 7.90396L6.01199 9.52305L7.24476 6.48382L6.79783 6.53838Z" fill="url(#paint0_linear_1_181)"/>
<path d="M0 11.9454H4.7013V24.0968H17.7168C17.4512 16.2053 11.2873 9.80613 3.49277 9.16577L0 11.9454Z" fill="url(#paint1_linear_1_181)"/>
<path d="M4.74377 24.0973H22.5515V11.9459H27.2528L23.7479 9.16013C22.5818 8.87632 21.3672 8.72533 20.1163 8.72533C11.6263 8.72533 4.74377 15.6078 4.74377 24.0978V24.0973Z" fill="url(#paint2_linear_1_181)"/>
<path d="M4.74377 24.0979H17.7174C17.5482 18.9739 14.8892 14.4842 10.9137 11.7834C7.16744 14.5873 4.74433 19.0588 4.74433 24.0979H4.74377Z" fill="url(#paint3_linear_1_181)"/>
<path d="M11.5955 17.5953L9.55921 20.3568L9.06378 22.0849L15.8438 18.0725C15.8438 18.0725 15.5418 16.4231 14.8165 16.411C14.0974 16.4049 11.596 17.5953 11.596 17.5953H11.5955Z" fill="url(#paint4_linear_1_181)"/>
<path d="M22.5516 20.0007V19.227C18.0134 18.2604 18.2796 13.3354 18.2796 13.3354C18.2796 13.3354 16.1105 14.2959 15.053 14.9848C14.0015 15.6797 15.0105 15.9155 16.1469 18.2659C17.2887 20.6163 18.123 19.378 19.8088 19.8007C20.3527 19.9396 21.4703 20.0002 22.5521 20.0002L22.5516 20.0007Z" fill="url(#paint5_linear_1_181)"/>
<path d="M22.5512 20.7321V14.9793C22.4785 18.6534 18.0858 17.3418 16.4419 15.6742L15.2576 16.0853C16.5328 19.1731 16.4722 19.5842 18.0737 20.1038C19.3368 20.5089 20.9861 20.672 22.5512 20.7321Z" fill="url(#paint6_linear_1_181)"/>
<path d="M22.5512 20.0012V19.2275C21.0165 18.9013 20.0317 18.1215 19.3968 17.2337C18.2787 16.9918 17.1247 16.3635 16.4419 15.6747L15.2576 16.0858C15.6566 17.0463 15.9222 17.7412 16.146 18.267C17.2878 20.6173 18.1222 19.3791 19.8079 19.8017C20.3518 19.9406 21.4694 20.0012 22.5512 20.0012Z" fill="url(#paint7_linear_1_181)"/>
<path d="M13.6268 7.84277L15.3671 12.3628L20.2072 12.6223L16.4428 15.6737L16.4852 15.8247C19.5608 20.1694 25.658 19.3174 23.301 14.8096C29.8936 21.2931 19.1376 25.4808 13.4091 17.8609L9.55976 20.3568L10.8107 15.6737L7.04626 12.6223L11.8864 12.3628L13.6268 7.84277Z" fill="#3299FE"/>
<path d="M13.6268 7.84277L15.3671 12.3628L20.2072 12.6223L16.4428 15.6737L16.4852 15.8247C19.5608 20.1694 25.658 19.3174 23.301 14.8096C29.8936 21.2931 19.1376 25.4808 13.4091 17.8609L9.55976 20.3568L10.8107 15.6737L7.04626 12.6223L11.8864 12.3628L13.6268 7.84277Z" fill="url(#paint8_linear_1_181)"/>
<path d="M13.6268 7.84277L14.2732 9.52853L12.9682 13.4263L8.4361 13.7465L7.04626 12.6223L11.8864 12.3628L13.6268 7.84277Z" fill="url(#paint9_linear_1_181)"/>
<path d="M23.3007 14.8097C29.8933 21.2932 19.1372 25.4808 13.4087 17.861L9.55939 20.3569L10.2058 17.9459L13.8375 15.5046C18.7382 23.3779 27.6085 20.6285 23.3001 14.8097H23.3007Z" fill="url(#paint10_linear_1_181)"/>
<path d="M7.73969 4.19969L8.47704 6.12132L10.5375 6.22988L8.93609 7.52934L9.46788 9.52316L7.73969 8.3995L6.01149 9.52316L6.54328 7.52934L4.94183 6.22988L6.99683 6.12132L7.73969 4.19969Z" fill="url(#paint11_linear_1_181)"/>
<path d="M9.69252 0L10.0006 0.803481L10.8586 0.845914L10.194 1.38983L10.4177 2.22362L9.69252 1.75245L8.97336 2.22362L9.19104 1.38983L8.52643 0.845914L9.38447 0.803481L9.69252 0Z" fill="url(#paint12_linear_1_181)"/>
<path d="M29.4485 24.2029V23.0763H29.6499V24.2029H29.4485ZM29.9076 24.2029V23.3496H30.102V23.4807H30.1152C30.1355 23.4344 30.1662 23.3982 30.2073 23.3722C30.2485 23.3462 30.2997 23.3332 30.3611 23.3332C30.4564 23.3332 30.5292 23.3608 30.5797 23.4159C30.6302 23.4711 30.6554 23.5494 30.6554 23.6509V24.2029H30.4611V23.6962C30.4611 23.6296 30.447 23.5796 30.4189 23.5463C30.3913 23.513 30.3481 23.4963 30.2893 23.4963C30.2508 23.4963 30.2175 23.5049 30.1894 23.5221C30.1613 23.5393 30.1397 23.5635 30.1246 23.5947C30.1095 23.6259 30.102 23.6629 30.102 23.7056V24.2029H29.9076ZM31.2511 24.22C31.1652 24.22 31.0918 24.2023 31.0309 24.1669C30.9701 24.1315 30.9235 24.0805 30.8912 24.0139C30.8589 23.9473 30.8428 23.8677 30.8428 23.775V23.7735C30.8428 23.6814 30.8589 23.6025 30.8912 23.5369C30.9235 23.4714 30.9701 23.4211 31.0309 23.3863C31.0918 23.3509 31.165 23.3332 31.2503 23.3332C31.3237 23.3332 31.3867 23.3459 31.4392 23.3714C31.4923 23.3964 31.5342 23.4313 31.5649 23.476C31.5962 23.5203 31.6154 23.5721 31.6227 23.6314V23.6345H31.4392L31.4385 23.6322C31.4296 23.5905 31.4093 23.5565 31.3776 23.5299C31.3463 23.5034 31.3042 23.4901 31.2511 23.4901C31.2069 23.4901 31.1689 23.5013 31.1371 23.5237C31.1059 23.546 31.082 23.5783 31.0653 23.6205C31.0486 23.6626 31.0403 23.7136 31.0403 23.7735V23.775C31.0403 23.8354 31.0486 23.8872 31.0653 23.9304C31.0825 23.9731 31.1067 24.0059 31.1379 24.0288C31.1691 24.0511 31.2069 24.0623 31.2511 24.0623C31.3016 24.0623 31.3422 24.0509 31.3729 24.028C31.4041 24.0051 31.4257 23.9713 31.4377 23.9265L31.4392 23.9234L31.6219 23.9226L31.6211 23.9296C31.6118 23.9874 31.5915 24.0381 31.5602 24.0818C31.5295 24.1256 31.4884 24.1597 31.4369 24.1841C31.3854 24.2081 31.3234 24.22 31.2511 24.22ZM32.0903 24.22C32.0268 24.22 31.9735 24.2078 31.9303 24.1833C31.8871 24.1584 31.8546 24.1222 31.8327 24.0748C31.8108 24.0269 31.7999 23.9692 31.7999 23.9015V23.3496H31.9943V23.857C31.9943 23.9231 32.0073 23.9728 32.0333 24.0061C32.0594 24.0394 32.1018 24.0561 32.1606 24.0561C32.1918 24.0561 32.2194 24.0514 32.2433 24.042C32.2678 24.0321 32.2881 24.0181 32.3042 23.9999C32.3204 23.9817 32.3326 23.9598 32.3409 23.9343C32.3492 23.9083 32.3534 23.8791 32.3534 23.8469V23.3496H32.5478V24.2029H32.3534V24.0733H32.3401C32.3271 24.1034 32.3089 24.1297 32.2855 24.1521C32.2621 24.174 32.234 24.1909 32.2012 24.2029C32.1684 24.2143 32.1314 24.22 32.0903 24.22ZM33.2598 24.2169C33.2197 24.2169 33.183 24.2112 33.1497 24.1997C33.1164 24.1878 33.087 24.1708 33.0615 24.149C33.0365 24.1266 33.0162 24.1001 33.0006 24.0694H32.9873V24.2029H32.7929V23.0194H32.9873V23.4854H33.0006C33.0157 23.4547 33.036 23.4282 33.0615 23.4058C33.087 23.3834 33.1166 23.3662 33.1505 23.3543C33.1843 23.3418 33.2207 23.3355 33.2598 23.3355C33.3316 23.3355 33.3935 23.3535 33.4456 23.3894C33.4981 23.4248 33.5387 23.4755 33.5673 23.5416C33.596 23.6072 33.6103 23.6853 33.6103 23.7758V23.7774C33.6103 23.8669 33.5957 23.9447 33.5666 24.0108C33.5379 24.0769 33.4973 24.1279 33.4448 24.1638C33.3927 24.1992 33.3311 24.2169 33.2598 24.2169ZM33.1989 24.053C33.2431 24.053 33.2811 24.042 33.3128 24.0202C33.3446 23.9978 33.3691 23.966 33.3862 23.9249C33.4034 23.8838 33.412 23.8346 33.412 23.7774V23.7758C33.412 23.7186 33.4034 23.6694 33.3862 23.6283C33.3691 23.5866 33.3446 23.5549 33.3128 23.533C33.2811 23.5107 33.2431 23.4995 33.1989 23.4995C33.1552 23.4995 33.1172 23.5107 33.0849 23.533C33.0526 23.5554 33.0276 23.5872 33.0099 23.6283C32.9928 23.6694 32.9842 23.7186 32.9842 23.7758V23.7774C32.9842 23.8341 32.9928 23.8833 33.0099 23.9249C33.0276 23.966 33.0524 23.9978 33.0841 24.0202C33.1164 24.042 33.1546 24.053 33.1989 24.053ZM34.0373 24.2169C33.9837 24.2169 33.9356 24.2065 33.8929 24.1857C33.8507 24.1649 33.8174 24.1355 33.793 24.0975C33.769 24.0589 33.757 24.0137 33.757 23.9616V23.9601C33.757 23.9096 33.7695 23.8661 33.7945 23.8297C33.8195 23.7927 33.8562 23.7639 33.9046 23.743C33.953 23.7222 34.0118 23.71 34.081 23.7063L34.3964 23.6868V23.8149L34.1084 23.8336C34.0537 23.8367 34.0134 23.8482 33.9873 23.8679C33.9613 23.8877 33.9483 23.9153 33.9483 23.9507V23.9523C33.9483 23.9887 33.9621 24.0171 33.9897 24.0373C34.0178 24.0576 34.0534 24.0678 34.0966 24.0678C34.1357 24.0678 34.1705 24.06 34.2013 24.0444C34.232 24.0288 34.2562 24.0077 34.2739 23.9811C34.2915 23.9541 34.3004 23.9236 34.3004 23.8898V23.6197C34.3004 23.577 34.2869 23.5445 34.2598 23.5221C34.2327 23.4992 34.1927 23.4878 34.1396 23.4878C34.0953 23.4878 34.0592 23.4956 34.0311 23.5112C34.003 23.5263 33.984 23.5479 33.9741 23.576L33.9733 23.5791H33.7898L33.7906 23.5721C33.7969 23.5242 33.8156 23.4823 33.8468 23.4464C33.8781 23.4105 33.9194 23.3826 33.971 23.3628C34.0225 23.3431 34.0818 23.3332 34.1489 23.3332C34.2228 23.3332 34.2853 23.3446 34.3363 23.3675C34.3873 23.3899 34.4261 23.4227 34.4526 23.4659C34.4792 23.5086 34.4924 23.5598 34.4924 23.6197V24.2029H34.3004V24.0857H34.2871C34.2715 24.1128 34.2512 24.1362 34.2262 24.156C34.2018 24.1758 34.1737 24.1909 34.1419 24.2013C34.1102 24.2117 34.0753 24.2169 34.0373 24.2169ZM35.0615 24.2068C34.9637 24.2068 34.8932 24.1888 34.85 24.1529C34.8068 24.117 34.7852 24.0582 34.7852 23.9765V23.5002H34.6525V23.3496H34.7852V23.1404H34.9827V23.3496H35.1623V23.5002H34.9827V23.9304C34.9827 23.9726 34.9915 24.0035 35.0092 24.0233C35.0275 24.0426 35.0566 24.0522 35.0967 24.0522C35.1107 24.0522 35.1222 24.0519 35.131 24.0514C35.1404 24.0504 35.1508 24.0493 35.1623 24.0483V24.1982C35.1487 24.2008 35.1331 24.2029 35.1154 24.2044C35.0982 24.206 35.0803 24.2068 35.0615 24.2068ZM35.7142 24.22C35.6294 24.22 35.5565 24.2021 35.4956 24.1662C35.4352 24.1302 35.3887 24.0792 35.3559 24.0131C35.3231 23.9471 35.3067 23.8687 35.3067 23.7782V23.7774C35.3067 23.6879 35.3228 23.6098 35.3551 23.5432C35.3879 23.4766 35.4342 23.425 35.494 23.3886C35.5539 23.3517 35.6242 23.3332 35.7048 23.3332C35.786 23.3332 35.8558 23.3511 35.914 23.387C35.9729 23.4224 36.0181 23.4721 36.0499 23.5362C36.0816 23.6002 36.0975 23.6751 36.0975 23.761V23.825H35.4043V23.6946H36.0023L35.9101 23.8164V23.7391C35.9101 23.6824 35.9016 23.6353 35.8844 23.5978C35.8672 23.5604 35.8433 23.5323 35.8126 23.5135C35.7824 23.4948 35.7472 23.4854 35.7072 23.4854C35.6671 23.4854 35.6314 23.4953 35.6002 23.5151C35.5695 23.5343 35.545 23.563 35.5268 23.601C35.5091 23.6384 35.5003 23.6845 35.5003 23.7391V23.8172C35.5003 23.8698 35.5091 23.9148 35.5268 23.9523C35.5445 23.9892 35.5695 24.0178 35.6018 24.0381C35.6346 24.0579 35.6733 24.0678 35.7181 24.0678C35.753 24.0678 35.7829 24.0629 35.8079 24.053C35.8334 24.0426 35.8539 24.0303 35.8695 24.0163C35.8852 24.0017 35.8961 23.9879 35.9023 23.9749L35.9047 23.9694H36.0889L36.0874 23.9765C36.0806 24.004 36.0681 24.0321 36.0499 24.0608C36.0322 24.0889 36.008 24.1152 35.9773 24.1396C35.9471 24.1636 35.9101 24.1831 35.8664 24.1982C35.8227 24.2127 35.772 24.22 35.7142 24.22ZM36.5995 24.2169C36.5287 24.2169 36.467 24.1992 36.4145 24.1638C36.3619 24.1279 36.3213 24.0769 36.2927 24.0108C36.264 23.9447 36.2497 23.8669 36.2497 23.7774V23.7758C36.2497 23.6853 36.2638 23.6072 36.2919 23.5416C36.3205 23.4755 36.3608 23.4248 36.4129 23.3894C36.4655 23.3535 36.5276 23.3355 36.5995 23.3355C36.6385 23.3355 36.6749 23.3418 36.7088 23.3543C36.7426 23.3662 36.7723 23.3834 36.7978 23.4058C36.8238 23.4282 36.8441 23.4547 36.8587 23.4854H36.8727V23.0194H37.0663V24.2029H36.8727V24.0694H36.8587C36.843 24.1001 36.8225 24.1266 36.797 24.149C36.772 24.1708 36.7429 24.1878 36.7095 24.1997C36.6762 24.2112 36.6395 24.2169 36.5995 24.2169ZM36.6604 24.053C36.7046 24.053 36.7426 24.042 36.7743 24.0202C36.8066 23.9978 36.8313 23.966 36.8485 23.9249C36.8662 23.8833 36.875 23.8341 36.875 23.7774V23.7758C36.875 23.7186 36.8662 23.6694 36.8485 23.6283C36.8313 23.5872 36.8066 23.5554 36.7743 23.533C36.7426 23.5107 36.7046 23.4995 36.6604 23.4995C36.6166 23.4995 36.5787 23.5107 36.5464 23.533C36.5146 23.5549 36.4902 23.5866 36.473 23.6283C36.4558 23.6694 36.4472 23.7186 36.4472 23.7758V23.7774C36.4472 23.8346 36.4558 23.8838 36.473 23.9249C36.4902 23.966 36.5146 23.9978 36.5464 24.0202C36.5781 24.042 36.6161 24.053 36.6604 24.053ZM38.2123 24.2169C38.1723 24.2169 38.1356 24.2112 38.1023 24.1997C38.069 24.1878 38.0395 24.1708 38.014 24.149C37.9891 24.1266 37.9688 24.1001 37.9532 24.0694H37.9399V24.2029H37.7455V23.0194H37.9399V23.4854H37.9532C37.9682 23.4547 37.9885 23.4282 38.014 23.4058C38.0395 23.3834 38.0692 23.3662 38.103 23.3543C38.1369 23.3418 38.1733 23.3355 38.2123 23.3355C38.2842 23.3355 38.3461 23.3535 38.3981 23.3894C38.4507 23.4248 38.4913 23.4755 38.5199 23.5416C38.5485 23.6072 38.5629 23.6853 38.5629 23.7758V23.7774C38.5629 23.8669 38.5483 23.9447 38.5191 24.0108C38.4905 24.0769 38.4499 24.1279 38.3974 24.1638C38.3453 24.1992 38.2836 24.2169 38.2123 24.2169ZM38.1514 24.053C38.1957 24.053 38.2337 24.042 38.2654 24.0202C38.2972 23.9978 38.3216 23.966 38.3388 23.9249C38.356 23.8838 38.3646 23.8346 38.3646 23.7774V23.7758C38.3646 23.7186 38.356 23.6694 38.3388 23.6283C38.3216 23.5866 38.2972 23.5549 38.2654 23.533C38.2337 23.5107 38.1957 23.4995 38.1514 23.4995C38.1077 23.4995 38.0697 23.5107 38.0375 23.533C38.0052 23.5554 37.9802 23.5872 37.9625 23.6283C37.9453 23.6694 37.9368 23.7186 37.9368 23.7758V23.7774C37.9368 23.8341 37.9453 23.8833 37.9625 23.9249C37.9802 23.966 38.0049 23.9978 38.0367 24.0202C38.069 24.042 38.1072 24.053 38.1514 24.053ZM38.8142 24.5026C38.8023 24.5026 38.7898 24.5024 38.7768 24.5018C38.7643 24.5013 38.752 24.5005 38.7401 24.4995V24.3504C38.7479 24.3514 38.757 24.352 38.7674 24.352C38.7778 24.3525 38.788 24.3527 38.7978 24.3527C38.8379 24.3527 38.8699 24.3439 38.8939 24.3262C38.9183 24.309 38.9358 24.2812 38.9462 24.2427L38.9563 24.2036L38.6511 23.3496H38.8634L39.0882 24.1053L39.0352 24.0163H39.1023L39.0508 24.1053L39.2756 23.3496H39.4801L39.1741 24.2216C39.1497 24.2924 39.1216 24.3483 39.0898 24.3894C39.0581 24.4305 39.0198 24.4597 38.9751 24.4769C38.9308 24.494 38.8772 24.5026 38.8142 24.5026ZM40.0922 24.2029V23.0763H40.5145C40.6264 23.0763 40.7217 23.0982 40.8003 23.1419C40.8794 23.1856 40.9397 23.2491 40.9814 23.3324C41.0235 23.4157 41.0446 23.5161 41.0446 23.6337V23.6353C41.0446 23.7555 41.0238 23.8581 40.9822 23.9429C40.9405 24.0272 40.8801 24.0917 40.801 24.1365C40.7225 24.1807 40.6269 24.2029 40.5145 24.2029H40.0922ZM40.2936 24.0334H40.488C40.5624 24.0334 40.6259 24.0181 40.6785 23.9874C40.731 23.9567 40.7709 23.9119 40.7979 23.8531C40.8255 23.7943 40.8393 23.7227 40.8393 23.6384V23.6369C40.8393 23.5546 40.8252 23.4844 40.7971 23.4261C40.7696 23.3673 40.7295 23.3225 40.6769 23.2918C40.6243 23.2611 40.5614 23.2457 40.488 23.2457H40.2936V24.0334ZM41.3764 23.8305V23.6681H41.6762C41.7485 23.6681 41.8047 23.6496 41.8448 23.6127C41.8849 23.5752 41.9049 23.5226 41.9049 23.455V23.4534C41.9049 23.3852 41.8849 23.3327 41.8448 23.2957C41.8047 23.2588 41.7485 23.2403 41.6762 23.2403H41.3764V23.0763H41.7254C41.8019 23.0763 41.8687 23.092 41.926 23.1232C41.9832 23.1544 42.028 23.1984 42.0603 23.2551C42.0925 23.3113 42.1087 23.3772 42.1087 23.4526V23.4542C42.1087 23.5291 42.0925 23.595 42.0603 23.6517C42.028 23.7079 41.9832 23.7519 41.926 23.7836C41.8687 23.8149 41.8019 23.8305 41.7254 23.8305H41.3764ZM41.2757 24.2029V23.0763H41.4771V24.2029H41.2757ZM42.7223 24.231C42.6348 24.231 42.5588 24.2174 42.4943 24.1904C42.4303 24.1633 42.3798 24.1256 42.3429 24.0772C42.3059 24.0288 42.2851 23.9723 42.2804 23.9078L42.2796 23.8968H42.4748L42.4756 23.9046C42.4787 23.9364 42.4912 23.964 42.513 23.9874C42.5354 24.0108 42.5651 24.0293 42.602 24.0428C42.639 24.0558 42.6812 24.0623 42.7285 24.0623C42.7738 24.0623 42.8139 24.0553 42.8487 24.0413C42.8836 24.0272 42.9109 24.0079 42.9307 23.9835C42.9505 23.9585 42.9604 23.9299 42.9604 23.8976V23.8968C42.9604 23.8562 42.9445 23.8232 42.9128 23.7977C42.881 23.7717 42.8287 23.7508 42.7558 23.7352L42.6348 23.7102C42.5193 23.6858 42.4352 23.6468 42.3827 23.5931C42.3306 23.539 42.3046 23.4701 42.3046 23.3863V23.3855C42.3046 23.3184 42.3223 23.2595 42.3577 23.2091C42.3936 23.1586 42.4428 23.1193 42.5052 23.0912C42.5682 23.0626 42.6403 23.0482 42.7215 23.0482C42.8048 23.0482 42.8768 23.0623 42.9377 23.0904C42.9986 23.118 43.0465 23.1557 43.0814 23.2036C43.1162 23.2515 43.1358 23.3056 43.1399 23.366L43.1407 23.3761H42.9487L42.9471 23.3668C42.9424 23.3371 42.9302 23.3113 42.9104 23.2895C42.8912 23.2671 42.8654 23.2494 42.8331 23.2364C42.8009 23.2234 42.7631 23.2169 42.7199 23.2169C42.6788 23.2169 42.6421 23.2234 42.6099 23.2364C42.5776 23.2489 42.5521 23.2666 42.5333 23.2895C42.5151 23.3124 42.506 23.3399 42.506 23.3722V23.373C42.506 23.4126 42.5214 23.4453 42.5521 23.4714C42.5833 23.4974 42.6341 23.5177 42.7043 23.5323L42.8253 23.558C42.9044 23.5747 42.9687 23.5968 43.0181 23.6244C43.0676 23.652 43.1038 23.6863 43.1267 23.7274C43.1501 23.768 43.1618 23.8169 43.1618 23.8742V23.875C43.1618 23.9478 43.1438 24.0108 43.1079 24.0639C43.0725 24.117 43.0218 24.1581 42.9557 24.1872C42.8901 24.2164 42.8123 24.231 42.7223 24.231ZM43.3421 24.5003L43.41 24.0311H43.6099L43.4748 24.5003H43.3421ZM44.8106 24.231C44.7039 24.231 44.6118 24.207 44.5342 24.1591C44.4572 24.1113 44.3976 24.0433 44.3554 23.9554C44.3138 23.8669 44.293 23.762 44.293 23.6408V23.6392C44.293 23.5174 44.3138 23.4126 44.3554 23.3246C44.3976 23.2361 44.4572 23.1679 44.5342 23.1201C44.6112 23.0722 44.7031 23.0482 44.8098 23.0482C44.8951 23.0482 44.9722 23.0652 45.0409 23.099C45.1096 23.1323 45.1655 23.1786 45.2087 23.2379C45.2519 23.2968 45.2779 23.3644 45.2868 23.4409L45.286 23.4472H45.0893L45.0885 23.4433C45.0791 23.399 45.0614 23.3605 45.0354 23.3277C45.0094 23.2944 44.9771 23.2686 44.9386 23.2504C44.9001 23.2317 44.8571 23.2223 44.8098 23.2223C44.7463 23.2223 44.6911 23.2392 44.6443 23.2731C44.5974 23.3069 44.5613 23.355 44.5358 23.4175C44.5108 23.4794 44.4983 23.5531 44.4983 23.6384V23.64C44.4983 23.7253 44.5108 23.7992 44.5358 23.8617C44.5613 23.9242 44.5974 23.9723 44.6443 24.0061C44.6911 24.04 44.7465 24.0569 44.8106 24.0569C44.8584 24.0569 44.9014 24.0485 44.9394 24.0319C44.9779 24.0152 45.0099 23.9918 45.0354 23.9616C45.0614 23.9309 45.0791 23.895 45.0885 23.8539L45.09 23.8492H45.2868V23.8555C45.2769 23.9304 45.2506 23.996 45.2079 24.0522C45.1652 24.1084 45.1101 24.1524 45.0424 24.1841C44.9748 24.2153 44.8975 24.231 44.8106 24.231ZM45.5116 24.2029V23.0763H45.713V23.5447H46.261V23.0763H46.4617V24.2029H46.261V23.7142H45.713V24.2029H45.5116ZM46.7404 24.2029V23.0763H47.1955C47.2762 23.0763 47.3454 23.0907 47.4032 23.1193C47.4609 23.1479 47.5052 23.1882 47.5359 23.2403C47.5666 23.2923 47.5819 23.3543 47.5819 23.4261V23.4276C47.5819 23.5021 47.5632 23.5682 47.5257 23.6259C47.4888 23.6832 47.437 23.7238 47.3704 23.7477L47.6163 24.2029H47.3868L47.1651 23.7789C47.164 23.7789 47.1625 23.7789 47.1604 23.7789C47.1583 23.7789 47.1565 23.7789 47.1549 23.7789H46.9418V24.2029H46.7404ZM46.9418 23.6244H47.1744C47.2384 23.6244 47.2881 23.6075 47.3235 23.5736C47.3589 23.5398 47.3766 23.4927 47.3766 23.4323V23.4308C47.3766 23.372 47.3581 23.3254 47.3212 23.291C47.2848 23.2562 47.2345 23.2387 47.1705 23.2387H46.9418V23.6244ZM47.8271 24.2029V23.0763H48.0285V24.2029H47.8271ZM48.6975 24.231C48.6101 24.231 48.5341 24.2174 48.4696 24.1904C48.4056 24.1633 48.3551 24.1256 48.3181 24.0772C48.2812 24.0288 48.2603 23.9723 48.2557 23.9078L48.2549 23.8968H48.45L48.4508 23.9046C48.454 23.9364 48.4664 23.964 48.4883 23.9874C48.5107 24.0108 48.5403 24.0293 48.5773 24.0428C48.6142 24.0558 48.6564 24.0623 48.7038 24.0623C48.749 24.0623 48.7891 24.0553 48.824 24.0413C48.8589 24.0272 48.8862 24.0079 48.906 23.9835C48.9257 23.9585 48.9356 23.9299 48.9356 23.8976V23.8968C48.9356 23.8562 48.9198 23.8232 48.888 23.7977C48.8563 23.7717 48.804 23.7508 48.7311 23.7352L48.6101 23.7102C48.4945 23.6858 48.4105 23.6468 48.3579 23.5931C48.3059 23.539 48.2799 23.4701 48.2799 23.3863V23.3855C48.2799 23.3184 48.2976 23.2595 48.3329 23.2091C48.3689 23.1586 48.418 23.1193 48.4805 23.0912C48.5435 23.0626 48.6156 23.0482 48.6967 23.0482C48.78 23.0482 48.8521 23.0623 48.913 23.0904C48.9739 23.118 49.0218 23.1557 49.0566 23.2036C49.0915 23.2515 49.111 23.3056 49.1152 23.366L49.116 23.3761H48.9239L48.9224 23.3668C48.9177 23.3371 48.9054 23.3113 48.8857 23.2895C48.8664 23.2671 48.8406 23.2494 48.8084 23.2364C48.7761 23.2234 48.7384 23.2169 48.6952 23.2169C48.6541 23.2169 48.6174 23.2234 48.5851 23.2364C48.5528 23.2489 48.5273 23.2666 48.5086 23.2895C48.4904 23.3124 48.4813 23.3399 48.4813 23.3722V23.373C48.4813 23.4126 48.4966 23.4453 48.5273 23.4714C48.5586 23.4974 48.6093 23.5177 48.6796 23.5323L48.8006 23.558C48.8797 23.5747 48.944 23.5968 48.9934 23.6244C49.0428 23.652 49.079 23.6863 49.1019 23.7274C49.1253 23.768 49.137 23.8169 49.137 23.8742V23.875C49.137 23.9478 49.1191 24.0108 49.0832 24.0639C49.0478 24.117 48.997 24.1581 48.9309 24.1872C48.8654 24.2164 48.7876 24.231 48.6975 24.231ZM49.6437 24.2029V23.2457H49.2971V23.0763H50.1917V23.2457H49.8451V24.2029H49.6437ZM51.0981 24.4862C51.046 24.4212 51.0031 24.3504 50.9693 24.2739C50.936 24.1979 50.911 24.1165 50.8943 24.0295C50.8782 23.9426 50.8701 23.8502 50.8701 23.7524C50.8701 23.654 50.8782 23.5617 50.8943 23.4753C50.911 23.3884 50.936 23.3069 50.9693 23.2309C51.0031 23.1544 51.046 23.0839 51.0981 23.0194H51.2722C51.2435 23.0558 51.2167 23.1013 51.1918 23.156C51.1673 23.2106 51.146 23.271 51.1277 23.3371C51.1095 23.4027 51.0952 23.4711 51.0848 23.5424C51.0744 23.6132 51.0692 23.6832 51.0692 23.7524C51.0692 23.8216 51.0744 23.8919 51.0848 23.9632C51.0952 24.034 51.1095 24.1024 51.1277 24.1685C51.146 24.2346 51.1673 24.295 51.1918 24.3496C51.2167 24.4043 51.2435 24.4498 51.2722 24.4862H51.0981ZM51.4884 24.2029V23.0763H51.9108C52.0227 23.0763 52.1179 23.0982 52.1965 23.1419C52.2756 23.1856 52.336 23.2491 52.3776 23.3324C52.4198 23.4157 52.4408 23.5161 52.4408 23.6337V23.6353C52.4408 23.7555 52.42 23.8581 52.3784 23.9429C52.3367 24.0272 52.2764 24.0917 52.1973 24.1365C52.1187 24.1807 52.0232 24.2029 51.9108 24.2029H51.4884ZM51.6898 24.0334H51.8842C51.9586 24.0334 52.0221 24.0181 52.0747 23.9874C52.1273 23.9567 52.1671 23.9119 52.1941 23.8531C52.2217 23.7943 52.2355 23.7227 52.2355 23.6384V23.6369C52.2355 23.5546 52.2215 23.4844 52.1934 23.4261C52.1658 23.3673 52.1257 23.3225 52.0731 23.2918C52.0206 23.2611 51.9576 23.2457 51.8842 23.2457H51.6898V24.0334ZM53.017 24.22C52.9321 24.22 52.8593 24.2021 52.7984 24.1662C52.738 24.1302 52.6914 24.0792 52.6586 24.0131C52.6259 23.9471 52.6095 23.8687 52.6095 23.7782V23.7774C52.6095 23.6879 52.6256 23.6098 52.6579 23.5432C52.6907 23.4766 52.737 23.425 52.7968 23.3886C52.8567 23.3517 52.9269 23.3332 53.0076 23.3332C53.0888 23.3332 53.1585 23.3511 53.2168 23.387C53.2756 23.4224 53.3209 23.4721 53.3527 23.5362C53.3844 23.6002 53.4003 23.6751 53.4003 23.761V23.825H52.707V23.6946H53.305L53.2129 23.8164V23.7391C53.2129 23.6824 53.2043 23.6353 53.1872 23.5978C53.17 23.5604 53.146 23.5323 53.1153 23.5135C53.0851 23.4948 53.05 23.4854 53.0099 23.4854C52.9699 23.4854 52.9342 23.4953 52.903 23.5151C52.8723 23.5343 52.8478 23.563 52.8296 23.601C52.8119 23.6384 52.8031 23.6845 52.8031 23.7391V23.8172C52.8031 23.8698 52.8119 23.9148 52.8296 23.9523C52.8473 23.9892 52.8723 24.0178 52.9046 24.0381C52.9373 24.0579 52.9761 24.0678 53.0209 24.0678C53.0557 24.0678 53.0857 24.0629 53.1107 24.053C53.1362 24.0426 53.1567 24.0303 53.1723 24.0163C53.1879 24.0017 53.1989 23.9879 53.2051 23.9749L53.2075 23.9694H53.3917L53.3901 23.9765C53.3834 24.004 53.3709 24.0321 53.3527 24.0608C53.335 24.0889 53.3108 24.1152 53.2801 24.1396C53.2499 24.1636 53.2129 24.1831 53.1692 24.1982C53.1255 24.2127 53.0747 24.22 53.017 24.22ZM53.96 24.22C53.8752 24.22 53.8023 24.2021 53.7414 24.1662C53.6811 24.1302 53.6345 24.0792 53.6017 24.0131C53.5689 23.9471 53.5525 23.8687 53.5525 23.7782V23.7774C53.5525 23.6879 53.5686 23.6098 53.6009 23.5432C53.6337 23.4766 53.68 23.425 53.7399 23.3886C53.7997 23.3517 53.87 23.3332 53.9507 23.3332C54.0318 23.3332 54.1016 23.3511 54.1599 23.387C54.2187 23.4224 54.264 23.4721 54.2957 23.5362C54.3275 23.6002 54.3433 23.6751 54.3433 23.761V23.825H53.6501V23.6946H54.2481L54.156 23.8164V23.7391C54.156 23.6824 54.1474 23.6353 54.1302 23.5978C54.113 23.5604 54.0891 23.5323 54.0584 23.5135C54.0282 23.4948 53.9931 23.4854 53.953 23.4854C53.9129 23.4854 53.8773 23.4953 53.846 23.5151C53.8153 23.5343 53.7909 23.563 53.7727 23.601C53.755 23.6384 53.7461 23.6845 53.7461 23.7391V23.8172C53.7461 23.8698 53.755 23.9148 53.7727 23.9523C53.7904 23.9892 53.8153 24.0178 53.8476 24.0381C53.8804 24.0579 53.9192 24.0678 53.9639 24.0678C53.9988 24.0678 54.0287 24.0629 54.0537 24.053C54.0792 24.0426 54.0998 24.0303 54.1154 24.0163C54.131 24.0017 54.1419 23.9879 54.1482 23.9749L54.1505 23.9694H54.3347L54.3332 23.9765C54.3264 24.004 54.3139 24.0321 54.2957 24.0608C54.278 24.0889 54.2538 24.1152 54.2231 24.1396C54.1929 24.1636 54.156 24.1831 54.1123 24.1982C54.0685 24.2127 54.0178 24.22 53.96 24.22ZM54.5377 24.2029V23.3496H54.7321V23.4823H54.7454C54.7636 23.4349 54.793 23.3982 54.8336 23.3722C54.8747 23.3462 54.9234 23.3332 54.9796 23.3332C55.0181 23.3332 55.0527 23.3394 55.0834 23.3519C55.1146 23.3644 55.1414 23.3821 55.1638 23.405C55.1862 23.4279 55.2034 23.4552 55.2153 23.487H55.2294C55.2434 23.4563 55.263 23.4295 55.2879 23.4066C55.3134 23.3831 55.3431 23.3652 55.3769 23.3527C55.4113 23.3397 55.4482 23.3332 55.4878 23.3332C55.545 23.3332 55.594 23.3446 55.6346 23.3675C55.6757 23.3899 55.7072 23.4222 55.729 23.4643C55.7514 23.5065 55.7626 23.557 55.7626 23.6158V24.2029H55.5682V23.6634C55.5682 23.6259 55.5625 23.595 55.551 23.5705C55.5401 23.546 55.5232 23.5276 55.5003 23.5151C55.4774 23.5026 55.4485 23.4963 55.4136 23.4963C55.3798 23.4963 55.3504 23.5042 55.3254 23.5198C55.3004 23.5349 55.2809 23.5554 55.2669 23.5814C55.2533 23.6075 55.2466 23.6369 55.2466 23.6697V24.2029H55.0522V23.6494C55.0522 23.6176 55.0459 23.5903 55.0334 23.5674C55.0215 23.5445 55.0038 23.527 54.9804 23.5151C54.9575 23.5026 54.9301 23.4963 54.8984 23.4963C54.8666 23.4963 54.838 23.5047 54.8125 23.5213C54.7875 23.5375 54.7678 23.5598 54.7532 23.5885C54.7391 23.6166 54.7321 23.6483 54.7321 23.6837V24.2029H54.5377ZM56.3567 24.22C56.2718 24.22 56.199 24.2021 56.1381 24.1662C56.0777 24.1302 56.0311 24.0792 55.9983 24.0131C55.9656 23.9471 55.9492 23.8687 55.9492 23.7782V23.7774C55.9492 23.6879 55.9653 23.6098 55.9976 23.5432C56.0304 23.4766 56.0767 23.425 56.1365 23.3886C56.1964 23.3517 56.2666 23.3332 56.3473 23.3332C56.4285 23.3332 56.4982 23.3511 56.5565 23.387C56.6153 23.4224 56.6606 23.4721 56.6924 23.5362C56.7241 23.6002 56.74 23.6751 56.74 23.761V23.825H56.0468V23.6946H56.6447L56.5526 23.8164V23.7391C56.5526 23.6824 56.544 23.6353 56.5269 23.5978C56.5097 23.5604 56.4857 23.5323 56.455 23.5135C56.4249 23.4948 56.3897 23.4854 56.3497 23.4854C56.3096 23.4854 56.2739 23.4953 56.2427 23.5151C56.212 23.5343 56.1875 23.563 56.1693 23.601C56.1516 23.6384 56.1428 23.6845 56.1428 23.7391V23.8172C56.1428 23.8698 56.1516 23.9148 56.1693 23.9523C56.187 23.9892 56.212 24.0178 56.2443 24.0381C56.277 24.0579 56.3158 24.0678 56.3606 24.0678C56.3955 24.0678 56.4254 24.0629 56.4504 24.053C56.4759 24.0426 56.4964 24.0303 56.512 24.0163C56.5276 24.0017 56.5386 23.9879 56.5448 23.9749L56.5472 23.9694H56.7314L56.7298 23.9765C56.7231 24.004 56.7106 24.0321 56.6924 24.0608C56.6747 24.0889 56.6505 24.1152 56.6198 24.1396C56.5896 24.1636 56.5526 24.1831 56.5089 24.1982C56.4652 24.2127 56.4144 24.22 56.3567 24.22ZM57.242 24.2169C57.1712 24.2169 57.1095 24.1992 57.0569 24.1638C57.0044 24.1279 56.9638 24.0769 56.9352 24.0108C56.9065 23.9447 56.8922 23.8669 56.8922 23.7774V23.7758C56.8922 23.6853 56.9063 23.6072 56.9344 23.5416C56.963 23.4755 57.0033 23.4248 57.0554 23.3894C57.1079 23.3535 57.1701 23.3355 57.242 23.3355C57.281 23.3355 57.3174 23.3418 57.3513 23.3543C57.3851 23.3662 57.4147 23.3834 57.4402 23.4058C57.4663 23.4282 57.4866 23.4547 57.5011 23.4854H57.5152V23.0194H57.7088V24.2029H57.5152V24.0694H57.5011C57.4855 24.1001 57.465 24.1266 57.4395 24.149C57.4145 24.1708 57.3853 24.1878 57.352 24.1997C57.3187 24.2112 57.282 24.2169 57.242 24.2169ZM57.3029 24.053C57.3471 24.053 57.3851 24.042 57.4168 24.0202C57.4491 23.9978 57.4738 23.966 57.491 23.9249C57.5087 23.8833 57.5175 23.8341 57.5175 23.7774V23.7758C57.5175 23.7186 57.5087 23.6694 57.491 23.6283C57.4738 23.5872 57.4491 23.5554 57.4168 23.533C57.3851 23.5107 57.3471 23.4995 57.3029 23.4995C57.2591 23.4995 57.2211 23.5107 57.1889 23.533C57.1571 23.5549 57.1327 23.5866 57.1155 23.6283C57.0983 23.6694 57.0897 23.7186 57.0897 23.7758V23.7774C57.0897 23.8346 57.0983 23.8838 57.1155 23.9249C57.1327 23.966 57.1571 23.9978 57.1889 24.0202C57.2206 24.042 57.2586 24.053 57.3029 24.053ZM58.7159 24.2068C58.618 24.2068 58.5475 24.1888 58.5043 24.1529C58.4611 24.117 58.4395 24.0582 58.4395 23.9765V23.5002H58.3068V23.3496H58.4395V23.1404H58.637V23.3496H58.8166V23.5002H58.637V23.9304C58.637 23.9726 58.6459 24.0035 58.6636 24.0233C58.6818 24.0426 58.7109 24.0522 58.751 24.0522C58.765 24.0522 58.7765 24.0519 58.7853 24.0514C58.7947 24.0504 58.8051 24.0493 58.8166 24.0483V24.1982C58.803 24.2008 58.7874 24.2029 58.7697 24.2044C58.7526 24.206 58.7346 24.2068 58.7159 24.2068ZM59.3716 24.22C59.2868 24.22 59.2137 24.2023 59.1523 24.1669C59.0908 24.131 59.0435 24.08 59.0102 24.0139C58.9774 23.9478 58.961 23.8687 58.961 23.7766V23.775C58.961 23.684 58.9776 23.6054 59.011 23.5393C59.0443 23.4727 59.0914 23.4217 59.1523 23.3863C59.2137 23.3509 59.2868 23.3332 59.3716 23.3332C59.4565 23.3332 59.5293 23.3509 59.5902 23.3863C59.6516 23.4217 59.699 23.4724 59.7323 23.5385C59.7656 23.6046 59.7823 23.6834 59.7823 23.775V23.7766C59.7823 23.8687 59.7656 23.9478 59.7323 24.0139C59.6995 24.08 59.6524 24.131 59.591 24.1669C59.5301 24.2023 59.457 24.22 59.3716 24.22ZM59.3716 24.0623C59.4164 24.0623 59.4544 24.0511 59.4856 24.0288C59.5174 24.0059 59.5416 23.9733 59.5582 23.9312C59.5749 23.8885 59.5832 23.8372 59.5832 23.7774V23.7758C59.5832 23.7155 59.5749 23.6642 59.5582 23.622C59.5416 23.5794 59.5174 23.5468 59.4856 23.5244C59.4544 23.5015 59.4164 23.4901 59.3716 23.4901C59.3269 23.4901 59.2886 23.5015 59.2569 23.5244C59.2251 23.5468 59.2009 23.5794 59.1843 23.622C59.1676 23.6642 59.1593 23.7155 59.1593 23.7758V23.7774C59.1593 23.8372 59.1676 23.8885 59.1843 23.9312C59.2009 23.9739 59.2249 24.0064 59.2561 24.0288C59.2878 24.0511 59.3263 24.0623 59.3716 24.0623ZM60.8783 24.2169C60.8382 24.2169 60.8016 24.2112 60.7682 24.1997C60.7349 24.1878 60.7055 24.1708 60.68 24.149C60.655 24.1266 60.6348 24.1001 60.6191 24.0694H60.6059V24.2029H60.4115V23.0194H60.6059V23.4854H60.6191C60.6342 23.4547 60.6545 23.4282 60.68 23.4058C60.7055 23.3834 60.7352 23.3662 60.769 23.3543C60.8029 23.3418 60.8393 23.3355 60.8783 23.3355C60.9501 23.3355 61.0121 23.3535 61.0641 23.3894C61.1167 23.4248 61.1573 23.4755 61.1859 23.5416C61.2145 23.6072 61.2288 23.6853 61.2288 23.7758V23.7774C61.2288 23.8669 61.2143 23.9447 61.1851 24.0108C61.1565 24.0769 61.1159 24.1279 61.0633 24.1638C61.0113 24.1992 60.9496 24.2169 60.8783 24.2169ZM60.8174 24.053C60.8617 24.053 60.8997 24.042 60.9314 24.0202C60.9632 23.9978 60.9876 23.966 61.0048 23.9249C61.022 23.8838 61.0306 23.8346 61.0306 23.7774V23.7758C61.0306 23.7186 61.022 23.6694 61.0048 23.6283C60.9876 23.5866 60.9632 23.5549 60.9314 23.533C60.8997 23.5107 60.8617 23.4995 60.8174 23.4995C60.7737 23.4995 60.7357 23.5107 60.7035 23.533C60.6712 23.5554 60.6462 23.5872 60.6285 23.6283C60.6113 23.6694 60.6027 23.7186 60.6027 23.7758V23.7774C60.6027 23.8341 60.6113 23.8833 60.6285 23.9249C60.6462 23.966 60.6709 23.9978 60.7027 24.0202C60.7349 24.042 60.7732 24.053 60.8174 24.053ZM61.7886 24.22C61.7038 24.22 61.6309 24.2021 61.57 24.1662C61.5096 24.1302 61.463 24.0792 61.4303 24.0131C61.3975 23.9471 61.3811 23.8687 61.3811 23.7782V23.7774C61.3811 23.6879 61.3972 23.6098 61.4295 23.5432C61.4623 23.4766 61.5086 23.425 61.5684 23.3886C61.6283 23.3517 61.6985 23.3332 61.7792 23.3332C61.8604 23.3332 61.9301 23.3511 61.9884 23.387C62.0472 23.4224 62.0925 23.4721 62.1243 23.5362C62.156 23.6002 62.1719 23.6751 62.1719 23.761V23.825H61.4787V23.6946H62.0767L61.9845 23.8164V23.7391C61.9845 23.6824 61.9759 23.6353 61.9588 23.5978C61.9416 23.5604 61.9177 23.5323 61.8869 23.5135C61.8568 23.4948 61.8216 23.4854 61.7816 23.4854C61.7415 23.4854 61.7058 23.4953 61.6746 23.5151C61.6439 23.5343 61.6194 23.563 61.6012 23.601C61.5835 23.6384 61.5747 23.6845 61.5747 23.7391V23.8172C61.5747 23.8698 61.5835 23.9148 61.6012 23.9523C61.6189 23.9892 61.6439 24.0178 61.6762 24.0381C61.709 24.0579 61.7477 24.0678 61.7925 24.0678C61.8274 24.0678 61.8573 24.0629 61.8823 24.053C61.9078 24.0426 61.9283 24.0303 61.9439 24.0163C61.9595 24.0017 61.9705 23.9879 61.9767 23.9749L61.9791 23.9694H62.1633L62.1617 23.9765C62.155 24.004 62.1425 24.0321 62.1243 24.0608C62.1066 24.0889 62.0824 24.1152 62.0517 24.1396C62.0215 24.1636 61.9845 24.1831 61.9408 24.1982C61.8971 24.2127 61.8464 24.22 61.7886 24.22ZM63.275 24.231C63.1803 24.231 63.0983 24.2135 63.0291 24.1786C62.9598 24.1438 62.9062 24.0951 62.8682 24.0327C62.8308 23.9702 62.812 23.8976 62.812 23.8149V23.0763H63.0127V23.7985C63.0127 23.85 63.0228 23.8953 63.0431 23.9343C63.0639 23.9728 63.0939 24.003 63.1329 24.0249C63.1719 24.0462 63.2196 24.0569 63.2758 24.0569C63.3314 24.0569 63.3788 24.0462 63.4178 24.0249C63.4569 24.003 63.4865 23.9728 63.5068 23.9343C63.5271 23.8953 63.5373 23.85 63.5373 23.7985V23.0763H63.7379V23.8149C63.7379 23.8976 63.7192 23.9702 63.6817 24.0327C63.6442 24.0951 63.5909 24.1438 63.5217 24.1786C63.453 24.2135 63.3707 24.231 63.275 24.231ZM63.9948 24.2029V23.3496H64.1891V23.4807H64.2024C64.2227 23.4344 64.2534 23.3982 64.2945 23.3722C64.3356 23.3462 64.3869 23.3332 64.4483 23.3332C64.5436 23.3332 64.6164 23.3608 64.6669 23.4159C64.7174 23.4711 64.7426 23.5494 64.7426 23.6509V24.2029H64.5483V23.6962C64.5483 23.6296 64.5342 23.5796 64.5061 23.5463C64.4785 23.513 64.4353 23.4963 64.3765 23.4963C64.338 23.4963 64.3047 23.5049 64.2766 23.5221C64.2485 23.5393 64.2269 23.5635 64.2118 23.5947C64.1967 23.6259 64.1891 23.6629 64.1891 23.7056V24.2029H63.9948ZM64.9745 24.2029V23.3496H65.1681V24.2029H64.9745ZM65.0721 23.2067C65.0403 23.2067 65.013 23.1955 64.9901 23.1731C64.9672 23.1508 64.9558 23.124 64.9558 23.0927C64.9558 23.0605 64.9672 23.0334 64.9901 23.0115C65.013 22.9892 65.0403 22.978 65.0721 22.978C65.1038 22.978 65.1309 22.9892 65.1533 23.0115C65.1762 23.0334 65.1876 23.0605 65.1876 23.0927C65.1876 23.124 65.1762 23.1508 65.1533 23.1731C65.1309 23.1955 65.1038 23.2067 65.0721 23.2067ZM65.6373 24.2029L65.3336 23.3496H65.5413L65.738 24.0131H65.752L65.948 23.3496H66.1525L65.8496 24.2029H65.6373ZM66.6475 24.22C66.5626 24.22 66.4898 24.2021 66.4289 24.1662C66.3685 24.1302 66.3219 24.0792 66.2891 24.0131C66.2564 23.9471 66.24 23.8687 66.24 23.7782V23.7774C66.24 23.6879 66.2561 23.6098 66.2884 23.5432C66.3212 23.4766 66.3675 23.425 66.4273 23.3886C66.4872 23.3517 66.5574 23.3332 66.6381 23.3332C66.7193 23.3332 66.789 23.3511 66.8473 23.387C66.9061 23.4224 66.9514 23.4721 66.9832 23.5362C67.0149 23.6002 67.0308 23.6751 67.0308 23.761V23.825H66.3375V23.6946H66.9355L66.8434 23.8164V23.7391C66.8434 23.6824 66.8348 23.6353 66.8177 23.5978C66.8005 23.5604 66.7765 23.5323 66.7458 23.5135C66.7157 23.4948 66.6805 23.4854 66.6404 23.4854C66.6004 23.4854 66.5647 23.4953 66.5335 23.5151C66.5028 23.5343 66.4783 23.563 66.4601 23.601C66.4424 23.6384 66.4336 23.6845 66.4336 23.7391V23.8172C66.4336 23.8698 66.4424 23.9148 66.4601 23.9523C66.4778 23.9892 66.5028 24.0178 66.5351 24.0381C66.5678 24.0579 66.6066 24.0678 66.6514 24.0678C66.6862 24.0678 66.7162 24.0629 66.7412 24.053C66.7667 24.0426 66.7872 24.0303 66.8028 24.0163C66.8184 24.0017 66.8294 23.9879 66.8356 23.9749L66.838 23.9694H67.0222L67.0206 23.9765C67.0139 24.004 67.0014 24.0321 66.9832 24.0608C66.9655 24.0889 66.9413 24.1152 66.9106 24.1396C66.8804 24.1636 66.8434 24.1831 66.7997 24.1982C66.756 24.2127 66.7052 24.22 66.6475 24.22ZM67.2252 24.2029V23.3496H67.4196V23.4807H67.4328C67.4474 23.4349 67.4734 23.3993 67.5109 23.3738C67.5489 23.3483 67.596 23.3355 67.6522 23.3355C67.6668 23.3355 67.6811 23.3366 67.6951 23.3386C67.7097 23.3402 67.7217 23.3423 67.731 23.3449V23.519C67.7154 23.5153 67.6996 23.5127 67.6834 23.5112C67.6678 23.5091 67.6514 23.5081 67.6342 23.5081C67.591 23.5081 67.5533 23.5161 67.521 23.5323C67.4888 23.5484 67.4638 23.5715 67.4461 23.6017C67.4284 23.6314 67.4196 23.6665 67.4196 23.7071V24.2029H67.2252ZM68.1924 24.22C68.1201 24.22 68.0576 24.2099 68.0051 24.1896C67.953 24.1688 67.9119 24.1401 67.8817 24.1037C67.8515 24.0668 67.8336 24.0241 67.8278 23.9757V23.9741H68.0207L68.0215 23.9757C68.0319 24.0053 68.0514 24.0295 68.08 24.0483C68.1086 24.067 68.1471 24.0764 68.1955 24.0764C68.2278 24.0764 68.2562 24.072 68.2806 24.0631C68.3051 24.0537 68.3244 24.041 68.3384 24.0249C68.3525 24.0087 68.3595 23.99 68.3595 23.9686V23.9671C68.3595 23.9421 68.3493 23.9213 68.329 23.9046C68.3087 23.8875 68.2752 23.8737 68.2283 23.8633L68.0902 23.832C68.036 23.8201 67.9913 23.8034 67.9559 23.7821C67.9205 23.7607 67.8939 23.7344 67.8763 23.7032C67.8591 23.672 67.8505 23.6356 67.8505 23.5939V23.5931C67.8505 23.5416 67.8648 23.4963 67.8934 23.4573C67.9226 23.4183 67.9629 23.3878 68.0144 23.366C68.066 23.3441 68.1253 23.3332 68.1924 23.3332C68.2616 23.3332 68.3212 23.3436 68.3712 23.3644C68.4212 23.3852 68.4602 23.4139 68.4883 23.4503C68.5164 23.4867 68.5325 23.5281 68.5367 23.5744V23.576H68.354L68.3532 23.5736C68.346 23.5466 68.3285 23.5237 68.3009 23.5049C68.2739 23.4857 68.2374 23.476 68.1916 23.476C68.163 23.476 68.1373 23.4805 68.1144 23.4893C68.092 23.4982 68.0743 23.5107 68.0613 23.5268C68.0488 23.5424 68.0425 23.5609 68.0425 23.5822V23.583C68.0425 23.5997 68.0467 23.6142 68.055 23.6267C68.0639 23.6392 68.0777 23.6501 68.0964 23.6595C68.1151 23.6689 68.1399 23.6772 68.1706 23.6845L68.3087 23.7149C68.3925 23.7337 68.4545 23.7615 68.4945 23.7985C68.5346 23.8354 68.5547 23.8851 68.5547 23.9476V23.9491C68.5547 24.0033 68.539 24.0506 68.5078 24.0912C68.4766 24.1318 68.4336 24.1636 68.379 24.1865C68.3244 24.2088 68.2622 24.22 68.1924 24.22ZM68.7529 24.2029V23.3496H68.9465V24.2029H68.7529ZM68.8505 23.2067C68.8188 23.2067 68.7915 23.1955 68.7686 23.1731C68.7457 23.1508 68.7342 23.124 68.7342 23.0927C68.7342 23.0605 68.7457 23.0334 68.7686 23.0115C68.7915 22.9892 68.8188 22.978 68.8505 22.978C68.8823 22.978 68.9093 22.9892 68.9317 23.0115C68.9546 23.0334 68.9661 23.0605 68.9661 23.0927C68.9661 23.124 68.9546 23.1508 68.9317 23.1731C68.9093 23.1955 68.8823 23.2067 68.8505 23.2067ZM69.5219 24.2068C69.4241 24.2068 69.3535 24.1888 69.3103 24.1529C69.2671 24.117 69.2455 24.0582 69.2455 23.9765V23.5002H69.1128V23.3496H69.2455V23.1404H69.4431V23.3496H69.6226V23.5002H69.4431V23.9304C69.4431 23.9726 69.4519 24.0035 69.4696 24.0233C69.4878 24.0426 69.517 24.0522 69.557 24.0522C69.5711 24.0522 69.5825 24.0519 69.5914 24.0514C69.6008 24.0504 69.6112 24.0493 69.6226 24.0483V24.1982C69.6091 24.2008 69.5935 24.2029 69.5758 24.2044C69.5586 24.206 69.5406 24.2068 69.5219 24.2068ZM69.9083 24.5026C69.8964 24.5026 69.8839 24.5024 69.8709 24.5018C69.8584 24.5013 69.8461 24.5005 69.8342 24.4995V24.3504C69.842 24.3514 69.8511 24.352 69.8615 24.352C69.8719 24.3525 69.8821 24.3527 69.8919 24.3527C69.932 24.3527 69.964 24.3439 69.988 24.3262C70.0124 24.309 70.0299 24.2812 70.0403 24.2427L70.0504 24.2036L69.7452 23.3496H69.9575L70.1824 24.1053L70.1293 24.0163H70.1964L70.1449 24.1053L70.3697 23.3496H70.5742L70.2682 24.2216C70.2438 24.2924 70.2157 24.3483 70.1839 24.3894C70.1522 24.4305 70.1139 24.4597 70.0692 24.4769C70.0249 24.494 69.9713 24.5026 69.9083 24.5026ZM70.8717 24.4862H70.6968C70.726 24.4498 70.7528 24.4043 70.7772 24.3496C70.8022 24.295 70.8238 24.2346 70.842 24.1685C70.8602 24.1024 70.8743 24.034 70.8842 23.9632C70.8946 23.8919 70.8998 23.8216 70.8998 23.7524C70.8998 23.6832 70.8946 23.6132 70.8842 23.5424C70.8743 23.4711 70.8602 23.4027 70.842 23.3371C70.8238 23.271 70.8022 23.2106 70.7772 23.156C70.7528 23.1013 70.726 23.0558 70.6968 23.0194H70.8717C70.9237 23.0839 70.9664 23.1544 70.9997 23.2309C71.0335 23.3069 71.0585 23.3884 71.0747 23.4753C71.0913 23.5617 71.0996 23.654 71.0996 23.7524C71.0996 23.8502 71.0913 23.9426 71.0747 24.0295C71.0585 24.1165 71.0335 24.1979 70.9997 24.2739C70.9664 24.3504 70.9237 24.4212 70.8717 24.4862Z" fill="white"/>
<path d="M29.3096 20.8556H70.8023" stroke="white" stroke-width="0.252444" stroke-miterlimit="10"/>
<path d="M31.2107 3.51335V5.01717H31.9297C32.4187 5.01717 32.7186 4.71723 32.7186 4.26937C32.7186 3.82973 32.4022 3.51335 31.9338 3.51335H31.2107ZM31.2107 6.16763V8.15629H29.4686V2.2273H32.1023C33.6842 2.2273 34.4977 2.97099 34.4977 4.24061C34.4977 4.9391 34.1608 5.61295 33.5404 5.90878L34.6662 8.15629H32.7186L31.7818 6.16763H31.2107ZM37.304 4.58575C36.9055 4.58575 36.6014 4.87747 36.5685 5.28835H38.0395C38.0107 4.86104 37.719 4.58575 37.304 4.58575ZM38.0888 6.6648H39.5926C39.4488 7.65502 38.5819 8.27133 37.3246 8.27133C35.8166 8.27133 34.9168 7.37151 34.9168 5.8718C34.9168 4.36387 35.8249 3.42296 37.2712 3.42296C38.6928 3.42296 39.6132 4.33511 39.6132 5.74854V6.20461H36.5439V6.31144C36.5439 6.77984 36.8767 7.11266 37.3492 7.11266C37.7026 7.11266 37.9861 6.94419 38.0888 6.6648ZM44.6259 3.53801L43.1385 8.15629H41.1663L39.6584 3.53801H41.4744L42.1606 6.78806H42.1935L42.8632 3.53801H44.6259ZM44.9176 8.15629V3.53801H46.6022V8.15629H44.9176ZM45.7599 3.26683C45.2956 3.26683 44.9176 2.92991 44.9176 2.46561C44.9176 2.00132 45.2956 1.6644 45.7599 1.6644C46.2242 1.6644 46.6022 2.00132 46.6022 2.46561C46.6022 2.92991 46.2242 3.26683 45.7599 3.26683ZM49.5236 4.58575C49.125 4.58575 48.821 4.87747 48.7881 5.28835H50.259C50.2303 4.86104 49.9386 4.58575 49.5236 4.58575ZM50.3083 6.6648H51.8122C51.6684 7.65502 50.8014 8.27133 49.5441 8.27133C48.0362 8.27133 47.1364 7.37151 47.1364 5.8718C47.1364 4.36387 48.0444 3.42296 49.4907 3.42296C50.9123 3.42296 51.8327 4.33511 51.8327 5.74854V6.20461H48.7634V6.31144C48.7634 6.77984 49.0963 7.11266 49.5688 7.11266C49.9221 7.11266 50.2056 6.94419 50.3083 6.6648ZM59.3395 3.53801L58.1726 8.15629H56.3442L55.6909 5.16098H55.658L55.0129 8.15629H53.2174L52.0423 3.53801H53.7474L54.2487 6.67712H54.2816L54.902 3.53801H56.5085L57.1413 6.67712H57.1741L57.6754 3.53801H59.3395Z" fill="white"/>
<path d="M36.2125 11.0187V16.9476H34.6922V13.5127H34.6593L33.324 16.8778H32.3913L31.0559 13.5127H31.0231V16.9476H29.5028V11.0187H31.5161L32.8432 14.4783H32.8761L34.1991 11.0187H36.2125ZM37.7286 18.6405H37.1287V17.3832H37.3752C37.8642 17.3832 38.1559 17.2722 38.1641 17.0791V16.9969L36.6274 12.3294H38.4969L39.216 15.7314H39.2489L39.9679 12.3294H41.747L40.3541 16.8531C39.9597 18.1351 39.1995 18.6405 37.7286 18.6405ZM49.3318 16.9476H47.5897V14.6549H45.5024V16.9476H43.7603V11.0187H45.5024V13.2703H47.5897V11.0187H49.3318V16.9476ZM52.3682 17.0627C50.8685 17.0627 49.9481 16.1916 49.9481 14.6344C49.9481 13.1182 50.8932 12.2143 52.3682 12.2143C53.8515 12.2143 54.7883 13.11 54.7883 14.6344C54.7883 16.1957 53.872 17.0627 52.3682 17.0627ZM52.3682 15.8547C52.8079 15.8547 53.079 15.4233 53.079 14.6385C53.079 13.8743 52.8038 13.4223 52.3682 13.4223C51.9327 13.4223 51.6574 13.8743 51.6574 14.6385C51.6574 15.4233 51.9245 15.8547 52.3682 15.8547ZM55.2403 13.7592C55.2403 12.8019 56.0538 12.2143 57.3892 12.2143C58.7245 12.2143 59.5298 12.8142 59.5298 13.8167H58.0014C57.9973 13.5127 57.7549 13.3196 57.3768 13.3196C57.0605 13.3196 56.855 13.4511 56.855 13.6483C56.855 13.7962 57.007 13.903 57.3111 13.9605L58.3424 14.166C59.2587 14.3468 59.6654 14.7371 59.6654 15.4397C59.6654 16.4381 58.7697 17.0627 57.4261 17.0627C55.9963 17.0627 55.1951 16.434 55.1375 15.4561H56.7646C56.8016 15.7684 57.0564 15.9574 57.4467 15.9574C57.7918 15.9574 57.9973 15.8383 57.9973 15.641C57.9973 15.489 57.874 15.4027 57.5535 15.3411L56.666 15.1644C55.7374 14.9795 55.2403 14.4865 55.2403 13.7592ZM60.5447 11.3145H62.2293V12.3294H63.0429V13.5538H62.2293V15.2918C62.2293 15.5835 62.3978 15.7355 62.7511 15.7355C62.8785 15.7355 62.9443 15.7314 63.0429 15.715V16.886C62.8826 16.9189 62.6649 16.9476 62.3444 16.9476C61.0542 16.9476 60.5447 16.5737 60.5447 15.6616V13.5538H59.9325V12.3294H60.5447V11.3145ZM65.8862 13.3771C65.4876 13.3771 65.1835 13.6688 65.1507 14.0797H66.6216C66.5929 13.6524 66.3011 13.3771 65.8862 13.3771ZM66.6709 15.4561H68.1747C68.0309 16.4464 67.164 17.0627 65.9067 17.0627C64.3988 17.0627 63.4989 16.1629 63.4989 14.6632C63.4989 13.1552 64.407 12.2143 65.8533 12.2143C67.2749 12.2143 68.1953 13.1265 68.1953 14.5399V14.996H65.126V15.1028C65.126 15.5712 65.4588 15.904 65.9313 15.904C66.2847 15.904 66.5682 15.7355 66.6709 15.4561ZM68.7541 16.9476V10.7105H70.4387V16.9476H68.7541Z" fill="white"/>
</g>
<defs>
<linearGradient id="paint0_linear_1_181" x1="13.5345" y1="14.8984" x2="-2.13158" y2="-3.64365" gradientUnits="userSpaceOnUse">
<stop stop-color="#0043C9"/>
<stop offset="1" stop-color="#008BD0"/>
</linearGradient>
<linearGradient id="paint1_linear_1_181" x1="9.64957" y1="18.1705" x2="-6.01656" y2="-0.371576" gradientUnits="userSpaceOnUse">
<stop stop-color="#FFBA08"/>
<stop offset="0.49" stop-color="#BD22FF" stop-opacity="0"/>
<stop offset="1" stop-color="#BD22FF"/>
</linearGradient>
<linearGradient id="paint2_linear_1_181" x1="14.0431" y1="14.4583" x2="-1.62307" y2="-4.08371" gradientUnits="userSpaceOnUse">
<stop stop-color="#BD22FF"/>
<stop offset="0.51" stop-color="#BD22FF" stop-opacity="0"/>
<stop offset="1" stop-color="#FFBA08"/>
</linearGradient>
<linearGradient id="paint3_linear_1_181" x1="9.66211" y1="18.1604" x2="-6.00409" y2="-0.381682" gradientUnits="userSpaceOnUse">
<stop stop-color="#0045CC"/>
<stop offset="1" stop-color="#008ED3"/>
</linearGradient>
<linearGradient id="paint4_linear_1_181" x1="11.3978" y1="16.9508" x2="-4.7072" y2="-1.83129" gradientUnits="userSpaceOnUse">
<stop stop-color="#0038B9"/>
<stop offset="1" stop-color="#0073BE"/>
</linearGradient>
<linearGradient id="paint5_linear_1_181" x1="15.7373" y1="13.0276" x2="0.0711392" y2="-5.51448" gradientUnits="userSpaceOnUse">
<stop stop-color="#0045CE"/>
<stop offset="1" stop-color="#0095D6"/>
</linearGradient>
<linearGradient id="paint6_linear_1_181" x1="16.5275" y1="12.3603" x2="0.861339" y2="-6.18174" gradientUnits="userSpaceOnUse">
<stop stop-color="#0045CE"/>
<stop offset="1" stop-color="#0095D6"/>
</linearGradient>
<linearGradient id="paint7_linear_1_181" x1="15.5368" y1="13.1972" x2="-0.129328" y2="-5.34491" gradientUnits="userSpaceOnUse">
<stop stop-color="#0032B3"/>
<stop offset="1" stop-color="#006DB8"/>
</linearGradient>
<linearGradient id="paint8_linear_1_181" x1="17.1126" y1="13.6307" x2="4.35326" y2="4.60431" gradientUnits="userSpaceOnUse">
<stop stop-color="#BF27F6" stop-opacity="0.04"/>
<stop offset="0.05" stop-color="#CB42C9" stop-opacity="0.22"/>
<stop offset="0.09" stop-color="#D65C9F" stop-opacity="0.39"/>
<stop offset="0.14" stop-color="#E0737B" stop-opacity="0.53"/>
<stop offset="0.2" stop-color="#E8865B" stop-opacity="0.66"/>
<stop offset="0.25" stop-color="#EF9641" stop-opacity="0.77"/>
<stop offset="0.32" stop-color="#F5A32C" stop-opacity="0.85"/>
<stop offset="0.4" stop-color="#F9AD1B" stop-opacity="0.92"/>
<stop offset="0.49" stop-color="#FCB410" stop-opacity="0.97"/>
<stop offset="0.63" stop-color="#FEB809" stop-opacity="0.99"/>
<stop offset="1" stop-color="#FFBA08"/>
</linearGradient>
<linearGradient id="paint9_linear_1_181" x1="13.5628" y1="12.5854" x2="9.23738" y2="9.52522" gradientUnits="userSpaceOnUse">
<stop stop-color="#FFBA08"/>
<stop offset="0.24" stop-color="#F0983E" stop-opacity="0.78"/>
<stop offset="0.78" stop-color="#CC45C5" stop-opacity="0.23"/>
<stop offset="1" stop-color="#BD22FF" stop-opacity="0"/>
</linearGradient>
<linearGradient id="paint10_linear_1_181" x1="17.6508" y1="12.4988" x2="4.24179" y2="5.70165" gradientUnits="userSpaceOnUse">
<stop stop-color="#BD22FF" stop-opacity="0"/>
<stop offset="0.07" stop-color="#C535DF" stop-opacity="0.13"/>
<stop offset="0.22" stop-color="#D458A7" stop-opacity="0.36"/>
<stop offset="0.36" stop-color="#E17676" stop-opacity="0.55"/>
<stop offset="0.5" stop-color="#EC8E4E" stop-opacity="0.71"/>
<stop offset="0.64" stop-color="#F4A12F" stop-opacity="0.84"/>
<stop offset="0.77" stop-color="#FAAF19" stop-opacity="0.93"/>
<stop offset="0.89" stop-color="#FDB70C" stop-opacity="0.98"/>
<stop offset="1" stop-color="#FFBA08"/>
</linearGradient>
<linearGradient id="paint11_linear_1_181" x1="4.19071" y1="1.58895" x2="-0.245904" y2="-3.2149" gradientUnits="userSpaceOnUse">
<stop stop-color="#BD24FB"/>
<stop offset="0.04" stop-color="#CA40CD"/>
<stop offset="0.09" stop-color="#D559A4"/>
<stop offset="0.14" stop-color="#DF707F"/>
<stop offset="0.19" stop-color="#E7845E"/>
<stop offset="0.25" stop-color="#EF9543"/>
<stop offset="0.32" stop-color="#F5A22D"/>
<stop offset="0.39" stop-color="#F9AD1C"/>
<stop offset="0.49" stop-color="#FCB410"/>
<stop offset="0.62" stop-color="#FEB809"/>
<stop offset="1" stop-color="#FFBA08"/>
</linearGradient>
<linearGradient id="paint12_linear_1_181" x1="4.44015" y1="-6.03473" x2="2.58785" y2="-8.04071" gradientUnits="userSpaceOnUse">
<stop stop-color="#BD22FF"/>
<stop offset="0.04" stop-color="#C637DB"/>
<stop offset="0.09" stop-color="#D252AF"/>
<stop offset="0.15" stop-color="#DC6B87"/>
<stop offset="0.22" stop-color="#E68064"/>
<stop offset="0.29" stop-color="#ED9247"/>
<stop offset="0.36" stop-color="#F4A130"/>
<stop offset="0.45" stop-color="#F9AC1E"/>
<stop offset="0.56" stop-color="#FCB411"/>
<stop offset="0.69" stop-color="#FEB80A"/>
<stop offset="1" stop-color="#FFBA08"/>
</linearGradient>
<clipPath id="clip0_1_181">
<rect width="71.8887" height="24.4434" fill="white"/>
</clipPath>
</defs>
</svg>
