<svg width="269" height="100" viewBox="0 0 269 100" fill="none" xmlns="http://www.w3.org/2000/svg">
<g filter="url(#filter0_f_1_248)">
<path d="M62.4584 16.5706L54.3724 49.4085H43.8832L40.7386 35.1009C40.6787 34.8314 40.5814 34.3747 40.4466 33.7308C40.3268 33.0869 40.1846 32.3532 40.0199 31.5296C39.8701 30.7061 39.7279 29.8975 39.5931 29.1039C39.4733 28.2953 39.3835 27.6139 39.3236 27.0599C39.2637 27.6139 39.1664 28.2953 39.0316 29.1039C38.8968 29.8975 38.7471 30.7061 38.5824 31.5296C38.4326 32.3532 38.2829 33.0869 38.1332 33.7308C37.9984 34.3747 37.9011 34.8314 37.8412 35.1009L34.6742 49.4085H24.1849L16.0541 16.5706H24.6117L28.183 33.0345C28.2728 33.4388 28.3926 34.0153 28.5423 34.764C28.707 35.4977 28.8718 36.3063 29.0365 37.1898C29.2162 38.0583 29.3809 38.8968 29.5306 39.7054C29.6804 40.514 29.7852 41.1878 29.8451 41.7269C29.9649 40.7985 30.1221 39.7428 30.3167 38.5599C30.5264 37.377 30.751 36.179 30.9906 34.9662C31.2451 33.7383 31.4847 32.6003 31.7093 31.5521C31.9339 30.5039 32.1286 29.6504 32.2933 28.9915L35.1908 16.5706H43.4115L46.2191 28.9915C46.3688 29.6354 46.556 30.4889 46.7806 31.5521C47.0202 32.6003 47.2598 33.7383 47.4994 34.9662C47.7539 36.194 47.986 37.4069 48.1957 38.6048C48.4053 39.7878 48.5625 40.8285 48.6673 41.7269C48.7572 40.9782 48.9069 40.0348 49.1166 38.8968C49.3262 37.7438 49.5358 36.6283 49.7455 35.5501C49.9701 34.457 50.1423 33.6335 50.2621 33.0794L53.9007 16.5706H62.4584ZM86.6596 49.4085H67.1635V16.5706H86.6596V23.6908H76.0355V28.8568H85.8734V35.9769H76.0355V42.1761H86.6596V49.4085ZM92.8696 49.4085V16.5706H101.742V42.2435H114.387V49.4085H92.8696ZM134.725 23.3763C133.677 23.3763 132.741 23.6009 131.917 24.0501C131.094 24.4844 130.39 25.1208 129.806 25.9593C129.222 26.7979 128.773 27.8236 128.458 29.0365C128.159 30.2344 128.009 31.597 128.009 33.1244C128.009 35.1908 128.271 36.9277 128.795 38.3353C129.319 39.7428 130.113 40.806 131.176 41.5247C132.254 42.2435 133.602 42.6029 135.219 42.6029C136.687 42.6029 138.094 42.4007 139.442 41.9964C140.804 41.5921 142.175 41.1055 143.552 40.5365V48.0384C142.1 48.6823 140.61 49.1465 139.082 49.431C137.57 49.7155 135.96 49.8578 134.253 49.8578C130.69 49.8578 127.77 49.154 125.494 47.7464C123.233 46.3239 121.563 44.3548 120.485 41.8392C119.422 39.3236 118.89 36.4037 118.89 33.0794C118.89 30.5938 119.235 28.3177 119.923 26.2513C120.627 24.1849 121.653 22.3955 123 20.8831C124.348 19.3558 126.01 18.1803 127.987 17.3568C129.978 16.5182 132.254 16.099 134.815 16.099C136.402 16.099 138.072 16.2861 139.824 16.6605C141.591 17.0199 143.313 17.6039 144.99 18.4124L142.272 25.3978C141.074 24.8288 139.861 24.3496 138.633 23.9603C137.405 23.571 136.103 23.3763 134.725 23.3763ZM181.163 32.9447C181.163 35.4753 180.856 37.7813 180.242 39.8626C179.643 41.929 178.699 43.7109 177.412 45.2083C176.124 46.7057 174.469 47.8587 172.448 48.6673C170.426 49.4609 168.008 49.8578 165.193 49.8578C162.438 49.8578 160.049 49.4609 158.028 48.6673C156.021 47.8587 154.367 46.7132 153.064 45.2308C151.761 43.7334 150.795 41.944 150.167 39.8626C149.538 37.7813 149.223 35.4603 149.223 32.8997C149.223 29.4857 149.785 26.5208 150.908 24.0052C152.046 21.4746 153.798 19.5205 156.164 18.1429C158.529 16.7503 161.554 16.054 165.238 16.054C168.981 16.054 172.021 16.7503 174.357 18.1429C176.708 19.5355 178.43 21.4971 179.523 24.0277C180.616 26.5583 181.163 29.5306 181.163 32.9447ZM158.567 32.9447C158.567 34.9212 158.792 36.6208 159.241 38.0433C159.69 39.4658 160.401 40.5589 161.375 41.3226C162.348 42.0863 163.621 42.4681 165.193 42.4681C166.825 42.4681 168.12 42.0863 169.079 41.3226C170.052 40.5589 170.748 39.4658 171.167 38.0433C171.602 36.6208 171.819 34.9212 171.819 32.9447C171.819 29.9798 171.325 27.6364 170.336 25.9144C169.348 24.1924 167.649 23.3314 165.238 23.3314C163.636 23.3314 162.34 23.7207 161.352 24.4994C160.379 25.278 159.667 26.3861 159.218 27.8236C158.784 29.2611 158.567 30.9681 158.567 32.9447ZM201.86 49.4085L195.144 25.7572H194.942C195.002 26.3711 195.062 27.2022 195.122 28.2503C195.197 29.2985 195.264 30.429 195.324 31.6419C195.384 32.8548 195.414 34.0228 195.414 35.1458V49.4085H187.552V16.5706H199.367L206.217 39.8851H206.397L213.113 16.5706H224.95V49.4085H216.796V35.0111C216.796 33.9779 216.811 32.8698 216.841 31.6869C216.886 30.4889 216.931 29.3659 216.976 28.3177C217.036 27.2546 217.088 26.416 217.133 25.8021H216.931L210.305 49.4085H201.86ZM251.981 49.4085H232.485V16.5706H251.981V23.6908H241.357V28.8568H251.195V35.9769H241.357V42.1761H251.981V49.4085Z" fill="#B300FF"/>
</g>
<path d="M62.3626 15.4261L54.9798 45.4085H45.4027L42.5316 32.3451C42.4769 32.099 42.388 31.682 42.265 31.0941C42.1556 30.5062 42.0257 29.8363 41.8753 29.0843C41.7386 28.3324 41.6087 27.5941 41.4857 26.8695C41.3763 26.1312 41.2943 25.5091 41.2396 25.0033C41.1849 25.5091 41.096 26.1312 40.973 26.8695C40.85 27.5941 40.7132 28.3324 40.5628 29.0843C40.4261 29.8363 40.2894 30.5062 40.1527 31.0941C40.0296 31.682 39.9408 32.099 39.8861 32.3451L36.9945 45.4085H27.4173L19.9935 15.4261H27.807L31.0677 30.4583C31.1498 30.8275 31.2591 31.3539 31.3959 32.0374C31.5462 32.7074 31.6966 33.4456 31.847 34.2523C32.0111 35.0453 32.1615 35.8109 32.2982 36.5492C32.4349 37.2874 32.5306 37.9027 32.5853 38.3949C32.6947 37.5472 32.8382 36.5833 33.016 35.5033C33.2074 34.4232 33.4125 33.3294 33.6312 32.222C33.8636 31.1009 34.0824 30.0619 34.2875 29.1048C34.4925 28.1478 34.6703 27.3685 34.8207 26.7669L37.4662 15.4261H44.972L47.5355 26.7669C47.6722 27.3548 47.8431 28.1341 48.0482 29.1048C48.2669 30.0619 48.4857 31.1009 48.7044 32.222C48.9369 33.3431 49.1488 34.4505 49.3402 35.5443C49.5316 36.6244 49.6751 37.5746 49.7709 38.3949C49.8529 37.7113 49.9896 36.8499 50.181 35.8109C50.3724 34.7581 50.5638 33.7396 50.7552 32.7552C50.9603 31.7572 51.1175 31.0052 51.2269 30.4994L54.5492 15.4261H62.3626ZM86.5594 45.4085H68.7586V15.4261H86.5594V21.9271H76.8592V26.6439H85.8416V33.1449H76.8592V38.805H86.5594V45.4085ZM94.3294 45.4085V15.4261H102.43V38.8665H113.976V45.4085H94.3294ZM134.645 21.64C133.688 21.64 132.834 21.8451 132.082 22.2552C131.33 22.6517 130.687 23.2328 130.154 23.9984C129.621 24.764 129.211 25.7005 128.924 26.808C128.65 27.9017 128.513 29.1458 128.513 30.5404C128.513 32.4271 128.753 34.013 129.231 35.2982C129.71 36.5833 130.434 37.554 131.405 38.2103C132.389 38.8665 133.62 39.1947 135.096 39.1947C136.436 39.1947 137.721 39.0101 138.952 38.641C140.196 38.2718 141.447 37.8275 142.705 37.308V44.1576C141.379 44.7455 140.018 45.1693 138.624 45.429C137.243 45.6888 135.773 45.8187 134.215 45.8187C130.961 45.8187 128.295 45.1761 126.217 43.891C124.152 42.5921 122.628 40.7943 121.643 38.4974C120.673 36.2005 120.187 33.5345 120.187 30.4994C120.187 28.2298 120.502 26.1517 121.131 24.265C121.773 22.3783 122.71 20.7445 123.94 19.3636C125.171 17.9691 126.688 16.8958 128.493 16.1439C130.311 15.3783 132.389 14.9955 134.727 14.9955C136.177 14.9955 137.701 15.1664 139.301 15.5081C140.914 15.8363 142.486 16.3695 144.017 17.1078L141.536 23.4857C140.442 22.9662 139.335 22.5287 138.214 22.1732C137.093 21.8177 135.903 21.64 134.645 21.64ZM179.145 30.3763C179.145 32.6869 178.865 34.7923 178.304 36.6927C177.757 38.5794 176.896 40.2064 175.72 41.5736C174.544 42.9408 173.033 43.9935 171.188 44.7318C169.342 45.4564 167.134 45.8187 164.564 45.8187C162.048 45.8187 159.867 45.4564 158.022 44.7318C156.19 43.9935 154.679 42.9476 153.49 41.5941C152.3 40.2269 151.418 38.5931 150.844 36.6927C150.27 34.7923 149.983 32.6732 149.983 30.3353C149.983 27.2181 150.495 24.5111 151.521 22.2142C152.56 19.9037 154.159 18.1195 156.32 16.8617C158.48 15.5902 161.241 14.9544 164.605 14.9544C168.023 14.9544 170.798 15.5902 172.931 16.8617C175.077 18.1331 176.65 19.9242 177.648 22.2347C178.646 24.5453 179.145 27.2591 179.145 30.3763ZM158.514 30.3763C158.514 32.181 158.719 33.7328 159.129 35.0316C159.539 36.3304 160.189 37.3285 161.077 38.0257C161.966 38.723 163.128 39.0716 164.564 39.0716C166.054 39.0716 167.237 38.723 168.112 38.0257C169 37.3285 169.636 36.3304 170.019 35.0316C170.415 33.7328 170.614 32.181 170.614 30.3763C170.614 27.6693 170.162 25.5296 169.26 23.9574C168.358 22.3851 166.806 21.599 164.605 21.599C163.142 21.599 161.959 21.9544 161.057 22.6654C160.168 23.3763 159.519 24.388 159.109 25.7005C158.712 27.013 158.514 28.5716 158.514 30.3763ZM200.142 45.4085L194.011 23.8138H193.826C193.881 24.3744 193.935 25.1331 193.99 26.0902C194.058 27.0472 194.12 28.0794 194.175 29.1869C194.229 30.2943 194.257 31.3607 194.257 32.3861V45.4085H187.079V15.4261H197.866L204.121 36.7132H204.285L210.417 15.4261H221.224V45.4085H213.78V32.263C213.78 31.3197 213.794 30.308 213.821 29.2279C213.862 28.1341 213.903 27.1087 213.944 26.1517C213.999 25.181 214.047 24.4154 214.088 23.8548H213.903L207.853 45.4085H200.142ZM248.005 45.4085H230.204V15.4261H248.005V21.9271H238.305V26.6439H247.287V33.1449H238.305V38.805H248.005V45.4085Z" fill="white"/>
<path d="M38.514 89.5726C37.3786 89.5726 36.5713 89.2497 36.0921 88.6039C35.6234 87.9476 35.389 87.0986 35.389 86.057C35.389 85.7028 35.4151 85.3174 35.4671 84.9007C35.5192 84.4841 35.5973 84.0049 35.7015 83.4632L37.4984 75.057H35.9203L36.3421 73.0101L38.4828 71.9164L40.0921 68.1039H42.8109L41.9984 71.8226H44.7328L44.0609 75.057H41.3265L39.4515 83.9476C39.3994 84.1872 39.3526 84.4164 39.3109 84.6351C39.2692 84.8434 39.2484 85.0309 39.2484 85.1976C39.2484 85.5518 39.3213 85.807 39.4671 85.9632C39.613 86.1091 39.8526 86.182 40.1859 86.182C40.3421 86.182 40.5817 86.1559 40.9046 86.1039C41.2276 86.0414 41.5505 85.9424 41.8734 85.807V88.9007C41.3942 89.1403 40.8369 89.3122 40.2015 89.4164C39.5661 89.5205 39.0036 89.5726 38.514 89.5726ZM49.2328 89.5726C48.2119 89.5726 47.3369 89.3486 46.6078 88.9007C45.889 88.4528 45.3369 87.807 44.9515 86.9632C44.5661 86.1195 44.3734 85.1039 44.3734 83.9164C44.3734 83.0101 44.4619 82.0101 44.639 80.9164C44.8265 79.8122 45.113 78.708 45.4984 77.6039C45.8838 76.4997 46.389 75.4893 47.014 74.5726C47.6494 73.6455 48.4151 72.9007 49.3109 72.3382C50.2067 71.7757 51.2484 71.4945 52.4359 71.4945C53.4463 71.4945 54.3057 71.7236 55.014 72.182C55.7328 72.6403 56.2796 73.2966 56.6546 74.1507C57.0401 74.9945 57.2328 76.0101 57.2328 77.1976C57.2328 78.2184 57.1338 79.2966 56.9359 80.432C56.7484 81.5674 56.4515 82.6768 56.0453 83.7601C55.639 84.8434 55.1182 85.8226 54.4828 86.6976C53.8578 87.5726 53.1078 88.2705 52.2328 88.7914C51.3578 89.3122 50.3578 89.5726 49.2328 89.5726ZM49.6859 86.3226C50.1338 86.3226 50.5505 86.1143 50.9359 85.6976C51.3213 85.2809 51.6598 84.7289 51.9515 84.0414C52.2536 83.3539 52.5088 82.6039 52.7171 81.7914C52.9255 80.9684 53.0817 80.1559 53.1859 79.3539C53.3005 78.5414 53.3578 77.8122 53.3578 77.1664C53.3578 76.6559 53.3057 76.2236 53.2015 75.8695C53.1078 75.5049 52.9515 75.2289 52.7328 75.0414C52.5244 74.8539 52.2536 74.7601 51.9203 74.7601C51.4411 74.7601 51.0036 74.9789 50.6078 75.4164C50.2223 75.8539 49.8786 76.4268 49.5765 77.1351C49.2848 77.8434 49.0401 78.6143 48.8421 79.4476C48.6442 80.2705 48.4932 81.0778 48.389 81.8695C48.2953 82.6611 48.2484 83.3539 48.2484 83.9476C48.2484 84.6976 48.3682 85.2809 48.6078 85.6976C48.8473 86.1143 49.2067 86.3226 49.6859 86.3226ZM63.3265 89.2601L68.1546 66.4164H73.4671L73.9515 82.2445H74.0453L81.014 66.4164H86.6859L81.8265 89.2601H77.9203L80.639 76.432C80.7015 76.1403 80.7692 75.8486 80.8421 75.557C80.9255 75.2653 81.0036 74.9736 81.0765 74.682C81.1598 74.3799 81.238 74.0778 81.3109 73.7757H81.2484L74.264 89.2601H70.7796L70.3265 73.8695H70.2328C70.1598 74.307 70.0921 74.7236 70.0296 75.1195C69.9671 75.5153 69.9046 75.8955 69.8421 76.2601C69.7796 76.6247 69.7067 76.9789 69.6234 77.3226L67.1078 89.2601H63.3265ZM89.7953 89.5726C89.0661 89.5726 88.4359 89.3747 87.9046 88.9789C87.3838 88.5726 86.9828 87.9945 86.7015 87.2445C86.4203 86.4841 86.2796 85.5778 86.2796 84.5257C86.2796 83.5882 86.3682 82.5466 86.5453 81.4007C86.7223 80.2445 86.988 79.0882 87.3421 77.932C87.6963 76.7653 88.1494 75.6976 88.7015 74.7289C89.2536 73.7601 89.9046 72.9789 90.6546 72.3851C91.4046 71.7914 92.2588 71.4945 93.2171 71.4945C93.6859 71.4945 94.113 71.583 94.4984 71.7601C94.8942 71.9268 95.2432 72.1924 95.5453 72.557C95.8473 72.9111 96.0869 73.3799 96.264 73.9632H96.3578L97.1234 71.8226H100.452L96.7484 89.2601H93.639L93.6703 86.9945H93.5765C93.2015 87.5049 92.8265 87.9528 92.4515 88.3382C92.0765 88.7236 91.6755 89.0257 91.2484 89.2445C90.8213 89.4632 90.3369 89.5726 89.7953 89.5726ZM91.4046 86.3226C91.9776 86.3226 92.4723 86.0518 92.889 85.5101C93.3057 84.9684 93.6546 84.3018 93.9359 83.5101C94.2276 82.708 94.4671 81.9268 94.6546 81.1664C94.8942 80.1559 95.0557 79.333 95.139 78.6976C95.2223 78.0622 95.264 77.4893 95.264 76.9789C95.264 76.2914 95.1494 75.7653 94.9203 75.4007C94.6911 75.0361 94.3578 74.8539 93.9203 74.8539C93.4723 74.8539 93.0557 75.0726 92.6703 75.5101C92.2953 75.9372 91.9567 76.4997 91.6546 77.1976C91.363 77.8955 91.1078 78.6559 90.889 79.4789C90.6807 80.3018 90.5192 81.1143 90.4046 81.9164C90.3005 82.708 90.2484 83.4059 90.2484 84.0101C90.2484 84.7705 90.3421 85.3486 90.5296 85.7445C90.7276 86.1299 91.0192 86.3226 91.4046 86.3226ZM104.389 89.5726C103.254 89.5726 102.446 89.2497 101.967 88.6039C101.498 87.9476 101.264 87.0986 101.264 86.057C101.264 85.7028 101.29 85.3174 101.342 84.9007C101.394 84.4841 101.472 84.0049 101.577 83.4632L103.373 75.057H101.795L102.217 73.0101L104.358 71.9164L105.967 68.1039H108.686L107.873 71.8226H110.608L109.936 75.057H107.202L105.327 83.9476C105.274 84.1872 105.228 84.4164 105.186 84.6351C105.144 84.8434 105.123 85.0309 105.123 85.1976C105.123 85.5518 105.196 85.807 105.342 85.9632C105.488 86.1091 105.728 86.182 106.061 86.182C106.217 86.182 106.457 86.1559 106.78 86.1039C107.103 86.0414 107.425 85.9424 107.748 85.807V88.9007C107.269 89.1403 106.712 89.3122 106.077 89.4164C105.441 89.5205 104.879 89.5726 104.389 89.5726ZM109.358 89.2601L113.061 71.8226H116.077L115.842 74.5101H115.983C116.337 73.8122 116.702 73.2445 117.077 72.807C117.462 72.3591 117.884 72.0309 118.342 71.8226C118.811 71.6039 119.337 71.4945 119.92 71.4945C120.129 71.4945 120.332 71.5153 120.53 71.557C120.738 71.5882 120.967 71.6455 121.217 71.7289L120.077 75.8851C119.868 75.8018 119.649 75.7393 119.42 75.6976C119.191 75.6559 118.952 75.6351 118.702 75.6351C118.202 75.6351 117.754 75.7705 117.358 76.0414C116.962 76.3122 116.613 76.6716 116.311 77.1195C116.019 77.5674 115.769 78.0726 115.561 78.6351C115.363 79.1872 115.202 79.7549 115.077 80.3382L113.186 89.2601H109.358ZM119.483 89.2601L123.186 71.8226H126.998L123.311 89.2601H119.483ZM125.686 69.5414C125.082 69.5414 124.623 69.4059 124.311 69.1351C124.009 68.8643 123.858 68.458 123.858 67.9164C123.858 67.4684 123.946 67.0257 124.123 66.5882C124.311 66.1403 124.592 65.7705 124.967 65.4789C125.353 65.1872 125.837 65.0414 126.42 65.0414C127.004 65.0414 127.452 65.1716 127.764 65.432C128.087 65.682 128.248 66.083 128.248 66.6351C128.248 67.4268 128.014 68.1091 127.545 68.682C127.077 69.2549 126.457 69.5414 125.686 69.5414ZM125.264 89.2601L130.952 80.2757L129.092 71.8226H133.233L133.998 76.9789L136.905 71.8226H141.202L135.717 80.4007L137.67 89.2601H133.545L132.655 83.6976L129.452 89.2601H125.264ZM151.889 89.5726C150.691 89.5726 149.681 89.2861 148.858 88.7132C148.045 88.1299 147.431 87.2914 147.014 86.1976C146.597 85.0934 146.389 83.7653 146.389 82.2132C146.389 80.8174 146.53 79.3747 146.811 77.8851C147.092 76.3851 147.509 74.9372 148.061 73.5414C148.623 72.1351 149.311 70.8747 150.123 69.7601C150.946 68.6351 151.894 67.7445 152.967 67.0882C154.04 66.4216 155.238 66.0882 156.561 66.0882C157.405 66.0882 158.222 66.1976 159.014 66.4164C159.816 66.6247 160.545 66.9736 161.202 67.4632L159.248 70.6664C158.821 70.3122 158.394 70.0518 157.967 69.8851C157.54 69.708 157.103 69.6195 156.655 69.6195C155.821 69.6195 155.077 69.9268 154.42 70.5414C153.774 71.1559 153.212 71.958 152.733 72.9476C152.254 73.9268 151.853 74.9841 151.53 76.1195C151.217 77.2445 150.983 78.3278 150.827 79.3695C150.681 80.4111 150.608 81.2861 150.608 81.9945C150.608 83.4111 150.8 84.4372 151.186 85.0726C151.571 85.708 152.16 86.0257 152.952 86.0257C153.535 86.0257 154.123 85.9372 154.717 85.7601C155.321 85.5726 155.925 85.333 156.53 85.0414V88.6195C155.832 88.9528 155.071 89.1924 154.248 89.3382C153.425 89.4945 152.639 89.5726 151.889 89.5726ZM163.17 89.5726C162.441 89.5726 161.811 89.3747 161.28 88.9789C160.759 88.5726 160.358 87.9945 160.077 87.2445C159.795 86.4841 159.655 85.5778 159.655 84.5257C159.655 83.5882 159.743 82.5466 159.92 81.4007C160.097 80.2445 160.363 79.0882 160.717 77.932C161.071 76.7653 161.524 75.6976 162.077 74.7289C162.629 73.7601 163.28 72.9789 164.03 72.3851C164.78 71.7914 165.634 71.4945 166.592 71.4945C167.061 71.4945 167.488 71.583 167.873 71.7601C168.269 71.9268 168.618 72.1924 168.92 72.557C169.222 72.9111 169.462 73.3799 169.639 73.9632H169.733L170.498 71.8226H173.827L170.123 89.2601H167.014L167.045 86.9945H166.952C166.577 87.5049 166.202 87.9528 165.827 88.3382C165.452 88.7236 165.05 89.0257 164.623 89.2445C164.196 89.4632 163.712 89.5726 163.17 89.5726ZM164.78 86.3226C165.353 86.3226 165.847 86.0518 166.264 85.5101C166.681 84.9684 167.03 84.3018 167.311 83.5101C167.603 82.708 167.842 81.9268 168.03 81.1664C168.269 80.1559 168.431 79.333 168.514 78.6976C168.597 78.0622 168.639 77.4893 168.639 76.9789C168.639 76.2914 168.524 75.7653 168.295 75.4007C168.066 75.0361 167.733 74.8539 167.295 74.8539C166.847 74.8539 166.431 75.0726 166.045 75.5101C165.67 75.9372 165.332 76.4997 165.03 77.1976C164.738 77.8955 164.483 78.6559 164.264 79.4789C164.056 80.3018 163.894 81.1143 163.78 81.9164C163.675 82.708 163.623 83.4059 163.623 84.0101C163.623 84.7705 163.717 85.3486 163.905 85.7445C164.103 86.1299 164.394 86.3226 164.78 86.3226ZM173.389 89.2601L177.092 71.8226H180.202L179.983 73.932H180.108C180.42 73.432 180.774 72.9997 181.17 72.6351C181.566 72.2705 181.998 71.9893 182.467 71.7914C182.936 71.5934 183.431 71.4945 183.952 71.4945C184.816 71.4945 185.509 71.6768 186.03 72.0414C186.55 72.3955 186.92 72.9528 187.139 73.7132H187.233C187.566 73.2549 187.936 72.8591 188.342 72.5257C188.759 72.1924 189.202 71.9372 189.67 71.7601C190.149 71.583 190.649 71.4945 191.17 71.4945C192.191 71.4945 192.983 71.807 193.545 72.432C194.118 73.0466 194.405 73.932 194.405 75.0882C194.405 75.4424 194.373 75.8434 194.311 76.2914C194.259 76.7289 194.186 77.182 194.092 77.6507L191.623 89.2601H187.78L190.03 78.6351C190.123 78.208 190.196 77.7966 190.248 77.4007C190.311 77.0049 190.342 76.6716 190.342 76.4007C190.342 75.9111 190.254 75.557 190.077 75.3382C189.91 75.1091 189.649 74.9945 189.295 74.9945C188.92 74.9945 188.587 75.1195 188.295 75.3695C188.014 75.6091 187.764 75.932 187.545 76.3382C187.337 76.7341 187.155 77.1716 186.998 77.6507C186.853 78.1195 186.733 78.5882 186.639 79.057L184.452 89.2601H180.623L182.92 78.5101C183.004 78.0934 183.071 77.6976 183.123 77.3226C183.175 76.9372 183.202 76.6195 183.202 76.3695C183.202 75.9007 183.113 75.557 182.936 75.3382C182.769 75.1091 182.519 74.9945 182.186 74.9945C181.769 74.9945 181.399 75.1403 181.077 75.432C180.764 75.7132 180.488 76.0934 180.248 76.5726C180.019 77.0518 179.821 77.583 179.655 78.1664C179.488 78.7497 179.347 79.333 179.233 79.9164L177.248 89.2601H173.389ZM193.28 96.807L198.561 71.8226H201.702L201.514 74.182H201.639C202.035 73.557 202.436 73.0466 202.842 72.6507C203.248 72.2549 203.675 71.9632 204.123 71.7757C204.571 71.5882 205.045 71.4945 205.545 71.4945C206.274 71.4945 206.894 71.682 207.405 72.057C207.925 72.4216 208.327 72.9789 208.608 73.7289C208.889 74.4789 209.03 75.432 209.03 76.5882C209.03 77.5882 208.936 78.6716 208.748 79.8382C208.561 81.0049 208.28 82.1611 207.905 83.307C207.53 84.4528 207.061 85.4997 206.498 86.4476C205.946 87.3955 205.295 88.1559 204.545 88.7289C203.806 89.2914 202.972 89.5726 202.045 89.5726C201.566 89.5726 201.134 89.4789 200.748 89.2914C200.363 89.1143 200.03 88.8539 199.748 88.5101C199.467 88.1664 199.243 87.7549 199.077 87.2757H198.983C198.91 87.8486 198.827 88.3955 198.733 88.9164C198.639 89.4372 198.561 89.8799 198.498 90.2445L197.092 96.807H193.28ZM201.373 86.2132C201.821 86.2132 202.233 86.0049 202.608 85.5882C202.993 85.1611 203.337 84.6039 203.639 83.9164C203.941 83.2184 204.196 82.4632 204.405 81.6507C204.623 80.8382 204.785 80.0309 204.889 79.2289C205.004 78.4268 205.061 77.708 205.061 77.0726C205.061 76.2809 204.962 75.6976 204.764 75.3226C204.577 74.9476 204.3 74.7601 203.936 74.7601C203.53 74.7601 203.149 74.9268 202.795 75.2601C202.441 75.583 202.118 76.0205 201.827 76.5726C201.545 77.1143 201.29 77.7236 201.061 78.4007C200.842 79.0674 200.655 79.7549 200.498 80.4632C200.342 81.1611 200.222 81.8226 200.139 82.4476C200.066 83.0726 200.03 83.6143 200.03 84.0726C200.03 84.7914 200.139 85.3278 200.358 85.682C200.587 86.0361 200.925 86.2132 201.373 86.2132ZM213.733 89.5726C212.993 89.5726 212.363 89.4268 211.842 89.1351C211.332 88.833 210.941 88.4059 210.67 87.8539C210.41 87.2914 210.28 86.6195 210.28 85.8382C210.28 85.4528 210.311 85.0205 210.373 84.5414C210.446 84.0518 210.524 83.5778 210.608 83.1195L213.03 71.8226H216.842L214.67 82.182C214.556 82.6611 214.467 83.1247 214.405 83.5726C214.342 84.0205 214.311 84.4216 214.311 84.7757C214.311 85.1924 214.394 85.5205 214.561 85.7601C214.738 85.9997 215.009 86.1195 215.373 86.1195C215.873 86.1195 216.311 85.9059 216.686 85.4789C217.071 85.0518 217.405 84.4528 217.686 83.682C217.978 82.9111 218.228 82.0101 218.436 80.9789L220.42 71.8226H224.233L220.545 89.2601H217.483L217.608 87.1507H217.514C217.181 87.6507 216.816 88.083 216.42 88.4476C216.024 88.8018 215.603 89.0778 215.155 89.2757C214.707 89.4736 214.233 89.5726 213.733 89.5726ZM227.983 89.5726C227.024 89.5726 226.217 89.4893 225.561 89.3226C224.915 89.1664 224.347 88.9424 223.858 88.6507V84.9789C224.368 85.3643 224.962 85.6664 225.639 85.8851C226.327 86.1039 226.946 86.2132 227.498 86.2132C227.925 86.2132 228.3 86.1403 228.623 85.9945C228.957 85.8382 229.212 85.6143 229.389 85.3226C229.577 85.0309 229.67 84.6664 229.67 84.2289C229.67 83.9372 229.629 83.6559 229.545 83.3851C229.462 83.1143 229.295 82.8174 229.045 82.4945C228.806 82.1716 228.452 81.7914 227.983 81.3539C227.431 80.8539 226.993 80.3695 226.67 79.9007C226.358 79.4216 226.134 78.9372 225.998 78.4476C225.873 77.958 225.811 77.4424 225.811 76.9007C225.811 75.9007 226.014 74.9945 226.42 74.182C226.837 73.3591 227.446 72.708 228.248 72.2289C229.05 71.7393 230.04 71.4945 231.217 71.4945C232.123 71.4945 232.978 71.6195 233.78 71.8695C234.582 72.1195 235.264 72.4424 235.827 72.8382L234.28 75.7914C233.821 75.4059 233.321 75.1247 232.78 74.9476C232.248 74.7601 231.79 74.6664 231.405 74.6664C230.894 74.6664 230.488 74.8174 230.186 75.1195C229.894 75.4111 229.748 75.8174 229.748 76.3382C229.748 76.6195 229.785 76.8851 229.858 77.1351C229.931 77.3747 230.082 77.6403 230.311 77.932C230.54 78.2132 230.884 78.557 231.342 78.9632C231.873 79.4528 232.316 79.9216 232.67 80.3695C233.035 80.807 233.306 81.3018 233.483 81.8539C233.66 82.3955 233.748 83.0622 233.748 83.8539C233.748 84.9268 233.519 85.8955 233.061 86.7601C232.613 87.6247 231.957 88.3122 231.092 88.8226C230.238 89.3226 229.202 89.5726 227.983 89.5726Z" fill="url(#paint0_linear_1_248)"/>
<defs>
<filter id="filter0_f_1_248" x="0" y="-7.62939e-06" width="268.035" height="65.9118" filterUnits="userSpaceOnUse" color-interpolation-filters="sRGB">
<feFlood flood-opacity="0" result="BackgroundImageFix"/>
<feBlend mode="normal" in="SourceGraphic" in2="BackgroundImageFix" result="shape"/>
<feGaussianBlur stdDeviation="8.02703" result="effect1_foregroundBlur_1_248"/>
</filter>
<linearGradient id="paint0_linear_1_248" x1="1.78067" y1="44.6149" x2="73.3138" y2="190.303" gradientUnits="userSpaceOnUse">
<stop stop-color="#BD22FF"/>
<stop offset="0.506074" stop-color="#A19FFF"/>
<stop offset="1" stop-color="#FFBA08"/>
</linearGradient>
</defs>
</svg>
